<svg width="428" height="307" viewBox="0 0 428 307" fill="none" xmlns="http://www.w3.org/2000/svg">
<path d="M65.952 9.08V18.896C65.952 19.808 66.16 20.512 66.576 21.008C67.008 21.504 67.656 21.752 68.52 21.752C69.384 21.752 70.032 21.504 70.464 21.008C70.912 20.496 71.136 19.792 71.136 18.896V9.08H75.84V18.896C75.84 20.448 75.512 21.776 74.856 22.88C74.2 23.968 73.304 24.792 72.168 25.352C71.048 25.896 69.8 26.168 68.424 26.168C67.048 26.168 65.816 25.896 64.728 25.352C63.656 24.792 62.808 23.968 62.184 22.88C61.576 21.792 61.272 20.464 61.272 18.896V9.08H65.952ZM87.2379 12.416C88.7899 12.416 90.0219 12.936 90.9339 13.976C91.8459 15 92.3019 16.392 92.3019 18.152V26H87.5979V18.776C87.5979 18.008 87.3979 17.408 86.9979 16.976C86.5979 16.528 86.0619 16.304 85.3899 16.304C84.6859 16.304 84.1339 16.528 83.7339 16.976C83.3339 17.408 83.1339 18.008 83.1339 18.776V26H78.4299V12.536H83.1339V14.456C83.5499 13.848 84.1099 13.36 84.8139 12.992C85.5179 12.608 86.3259 12.416 87.2379 12.416ZM119.229 9.08V26H114.525V16.664L111.333 26H107.397L104.181 16.592V26H99.4768V9.08H105.165L109.413 20.072L113.565 9.08H119.229ZM134.771 19.112C134.771 19.48 134.747 19.848 134.699 20.216H125.795C125.843 20.952 126.043 21.504 126.395 21.872C126.763 22.224 127.227 22.4 127.787 22.4C128.571 22.4 129.131 22.048 129.467 21.344H134.483C134.275 22.272 133.867 23.104 133.259 23.84C132.667 24.56 131.915 25.128 131.003 25.544C130.091 25.96 129.083 26.168 127.979 26.168C126.651 26.168 125.467 25.888 124.427 25.328C123.403 24.768 122.595 23.968 122.003 22.928C121.427 21.888 121.139 20.664 121.139 19.256C121.139 17.848 121.427 16.632 122.003 15.608C122.579 14.568 123.379 13.768 124.403 13.208C125.443 12.648 126.635 12.368 127.979 12.368C129.307 12.368 130.483 12.64 131.507 13.184C132.531 13.728 133.331 14.512 133.907 15.536C134.483 16.544 134.771 17.736 134.771 19.112ZM129.971 17.936C129.971 17.36 129.779 16.912 129.395 16.592C129.011 16.256 128.531 16.088 127.955 16.088C127.379 16.088 126.907 16.248 126.539 16.568C126.171 16.872 125.931 17.328 125.819 17.936H129.971ZM139.048 11.288C138.216 11.288 137.544 11.064 137.032 10.616C136.536 10.152 136.288 9.576 136.288 8.888C136.288 8.184 136.536 7.6 137.032 7.136C137.544 6.672 138.216 6.44 139.048 6.44C139.864 6.44 140.52 6.672 141.016 7.136C141.528 7.6 141.784 8.184 141.784 8.888C141.784 9.576 141.528 10.152 141.016 10.616C140.52 11.064 139.864 11.288 139.048 11.288ZM141.4 27.32C141.4 30.728 139.688 32.432 136.264 32.432H134.56V28.424H135.568C135.968 28.424 136.256 28.344 136.432 28.184C136.608 28.024 136.696 27.76 136.696 27.392V12.536H141.4V27.32ZM150.319 26.168C148.975 26.168 147.767 25.888 146.695 25.328C145.639 24.768 144.807 23.968 144.199 22.928C143.591 21.888 143.287 20.664 143.287 19.256C143.287 17.864 143.591 16.648 144.199 15.608C144.823 14.568 145.663 13.768 146.719 13.208C147.791 12.648 148.999 12.368 150.343 12.368C151.687 12.368 152.887 12.648 153.943 13.208C155.015 13.768 155.855 14.568 156.463 15.608C157.087 16.648 157.399 17.864 157.399 19.256C157.399 20.648 157.087 21.872 156.463 22.928C155.855 23.968 155.015 24.768 153.943 25.328C152.871 25.888 151.663 26.168 150.319 26.168ZM150.319 22.088C150.975 22.088 151.519 21.848 151.951 21.368C152.399 20.872 152.623 20.168 152.623 19.256C152.623 18.344 152.399 17.648 151.951 17.168C151.519 16.688 150.983 16.448 150.343 16.448C149.703 16.448 149.167 16.688 148.735 17.168C148.303 17.648 148.087 18.344 148.087 19.256C148.087 20.184 148.295 20.888 148.711 21.368C149.127 21.848 149.663 22.088 150.319 22.088ZM164.017 14.912C164.545 14.144 165.185 13.536 165.937 13.088C166.689 12.64 167.497 12.416 168.361 12.416V17.432H167.041C166.017 17.432 165.257 17.632 164.761 18.032C164.265 18.432 164.017 19.128 164.017 20.12V26H159.313V12.536H164.017V14.912ZM181.913 16.448H179.801V26H175.073V16.448H173.609V12.536H175.073V12.416C175.073 10.688 175.577 9.368 176.585 8.456C177.609 7.528 179.073 7.064 180.977 7.064C181.361 7.064 181.657 7.072 181.865 7.088V11.096C181.737 11.08 181.561 11.072 181.337 11.072C180.825 11.072 180.449 11.192 180.209 11.432C179.969 11.656 179.833 12.024 179.801 12.536H181.913V16.448ZM197.37 12.536V26H192.642V24.08C192.242 24.688 191.69 25.184 190.986 25.568C190.282 25.936 189.474 26.12 188.562 26.12C186.994 26.12 185.754 25.608 184.842 24.584C183.946 23.544 183.498 22.136 183.498 20.36V12.536H188.178V19.76C188.178 20.528 188.378 21.136 188.778 21.584C189.194 22.016 189.738 22.232 190.41 22.232C191.098 22.232 191.642 22.016 192.042 21.584C192.442 21.136 192.642 20.528 192.642 19.76V12.536H197.37ZM207.991 21.992V26H205.951C202.511 26 200.791 24.296 200.791 20.888V16.448H199.135V12.536H200.791V9.272H205.519V12.536H207.967V16.448H205.519V20.96C205.519 21.328 205.599 21.592 205.759 21.752C205.935 21.912 206.223 21.992 206.623 21.992H207.991ZM223.925 12.536V26H219.197V24.08C218.797 24.688 218.245 25.184 217.541 25.568C216.837 25.936 216.029 26.12 215.117 26.12C213.549 26.12 212.309 25.608 211.397 24.584C210.501 23.544 210.053 22.136 210.053 20.36V12.536H214.733V19.76C214.733 20.528 214.933 21.136 215.333 21.584C215.749 22.016 216.293 22.232 216.965 22.232C217.653 22.232 218.197 22.016 218.597 21.584C218.997 21.136 219.197 20.528 219.197 19.76V12.536H223.925ZM231.306 14.912C231.834 14.144 232.474 13.536 233.226 13.088C233.978 12.64 234.786 12.416 235.65 12.416V17.432H234.33C233.306 17.432 232.546 17.632 232.05 18.032C231.554 18.432 231.306 19.128 231.306 20.12V26H226.602V12.536H231.306V14.912ZM243.6 26.168C242.256 26.168 241.048 25.888 239.976 25.328C238.92 24.768 238.088 23.968 237.48 22.928C236.872 21.888 236.568 20.664 236.568 19.256C236.568 17.864 236.872 16.648 237.48 15.608C238.104 14.568 238.944 13.768 240 13.208C241.072 12.648 242.28 12.368 243.624 12.368C244.968 12.368 246.168 12.648 247.224 13.208C248.296 13.768 249.136 14.568 249.744 15.608C250.368 16.648 250.68 17.864 250.68 19.256C250.68 20.648 250.368 21.872 249.744 22.928C249.136 23.968 248.296 24.768 247.224 25.328C246.152 25.888 244.944 26.168 243.6 26.168ZM243.6 22.088C244.256 22.088 244.8 21.848 245.232 21.368C245.68 20.872 245.904 20.168 245.904 19.256C245.904 18.344 245.68 17.648 245.232 17.168C244.8 16.688 244.264 16.448 243.624 16.448C242.984 16.448 242.448 16.688 242.016 17.168C241.584 17.648 241.368 18.344 241.368 19.256C241.368 20.184 241.576 20.888 241.992 21.368C242.408 21.848 242.944 22.088 243.6 22.088ZM66.048 50.408C66.416 49.784 66.936 49.288 67.608 48.92C68.28 48.552 69.072 48.368 69.984 48.368C71.056 48.368 72.024 48.648 72.888 49.208C73.768 49.768 74.456 50.568 74.952 51.608C75.464 52.648 75.72 53.864 75.72 55.256C75.72 56.648 75.464 57.872 74.952 58.928C74.456 59.968 73.768 60.768 72.888 61.328C72.024 61.888 71.056 62.168 69.984 62.168C69.072 62.168 68.28 61.984 67.608 61.616C66.952 61.248 66.432 60.752 66.048 60.128V68.432H61.344V48.536H66.048V50.408ZM70.944 55.256C70.944 54.376 70.704 53.696 70.224 53.216C69.76 52.72 69.184 52.472 68.496 52.472C67.808 52.472 67.224 52.72 66.744 53.216C66.28 53.712 66.048 54.392 66.048 55.256C66.048 56.136 66.28 56.824 66.744 57.32C67.224 57.816 67.808 58.064 68.496 58.064C69.184 58.064 69.76 57.816 70.224 57.32C70.704 56.808 70.944 56.12 70.944 55.256ZM76.8885 55.256C76.8885 53.864 77.1365 52.648 77.6325 51.608C78.1445 50.568 78.8325 49.768 79.6965 49.208C80.5765 48.648 81.5525 48.368 82.6245 48.368C83.5525 48.368 84.3525 48.552 85.0245 48.92C85.6965 49.288 86.2165 49.784 86.5845 50.408V48.536H91.2885V62H86.5845V60.128C86.2165 60.752 85.6885 61.248 85.0005 61.616C84.3285 61.984 83.5365 62.168 82.6245 62.168C81.5525 62.168 80.5765 61.888 79.6965 61.328C78.8325 60.768 78.1445 59.968 77.6325 58.928C77.1365 57.872 76.8885 56.648 76.8885 55.256ZM86.5845 55.256C86.5845 54.392 86.3445 53.712 85.8645 53.216C85.4005 52.72 84.8245 52.472 84.1365 52.472C83.4325 52.472 82.8485 52.72 82.3845 53.216C81.9205 53.696 81.6885 54.376 81.6885 55.256C81.6885 56.12 81.9205 56.808 82.3845 57.32C82.8485 57.816 83.4325 58.064 84.1365 58.064C84.8245 58.064 85.4005 57.816 85.8645 57.32C86.3445 56.824 86.5845 56.136 86.5845 55.256ZM98.673 50.912C99.201 50.144 99.841 49.536 100.593 49.088C101.345 48.64 102.153 48.416 103.017 48.416V53.432H101.697C100.673 53.432 99.913 53.632 99.417 54.032C98.921 54.432 98.673 55.128 98.673 56.12V62H93.969V48.536H98.673V50.912ZM103.935 55.256C103.935 53.864 104.183 52.648 104.679 51.608C105.191 50.568 105.879 49.768 106.743 49.208C107.623 48.648 108.599 48.368 109.671 48.368C110.599 48.368 111.399 48.552 112.071 48.92C112.743 49.288 113.263 49.784 113.631 50.408V48.536H118.335V62H113.631V60.128C113.263 60.752 112.735 61.248 112.047 61.616C111.375 61.984 110.583 62.168 109.671 62.168C108.599 62.168 107.623 61.888 106.743 61.328C105.879 60.768 105.191 59.968 104.679 58.928C104.183 57.872 103.935 56.648 103.935 55.256ZM113.631 55.256C113.631 54.392 113.391 53.712 112.911 53.216C112.447 52.72 111.871 52.472 111.183 52.472C110.479 52.472 109.895 52.72 109.431 53.216C108.967 53.696 108.735 54.376 108.735 55.256C108.735 56.12 108.967 56.808 109.431 57.32C109.895 57.816 110.479 58.064 111.183 58.064C111.871 58.064 112.447 57.816 112.911 57.32C113.391 56.824 113.631 56.136 113.631 55.256ZM133.554 57.992V62H131.514C128.074 62 126.354 60.296 126.354 56.888V52.448H124.698V48.536H126.354V45.272H131.082V48.536H133.53V52.448H131.082V56.96C131.082 57.328 131.162 57.592 131.322 57.752C131.498 57.912 131.786 57.992 132.186 57.992H133.554ZM149.487 48.536V62H144.759V60.08C144.359 60.688 143.807 61.184 143.103 61.568C142.399 61.936 141.591 62.12 140.679 62.12C139.111 62.12 137.871 61.608 136.959 60.584C136.063 59.544 135.615 58.136 135.615 56.36V48.536H140.295V55.76C140.295 56.528 140.495 57.136 140.895 57.584C141.311 58.016 141.855 58.232 142.527 58.232C143.215 58.232 143.759 58.016 144.159 57.584C144.559 57.136 144.759 56.528 144.759 55.76V48.536H149.487ZM157.9 62.168C156.684 62.168 155.596 61.968 154.636 61.568C153.692 61.152 152.94 60.592 152.38 59.888C151.836 59.168 151.532 58.36 151.468 57.464H156.028C156.092 57.896 156.292 58.232 156.628 58.472C156.964 58.712 157.38 58.832 157.876 58.832C158.26 58.832 158.564 58.752 158.788 58.592C159.012 58.432 159.124 58.224 159.124 57.968C159.124 57.632 158.94 57.384 158.572 57.224C158.204 57.064 157.596 56.888 156.748 56.696C155.788 56.504 154.988 56.288 154.348 56.048C153.708 55.808 153.148 55.416 152.668 54.872C152.204 54.328 151.972 53.592 151.972 52.664C151.972 51.864 152.188 51.144 152.62 50.504C153.052 49.848 153.684 49.328 154.516 48.944C155.364 48.56 156.38 48.368 157.564 48.368C159.324 48.368 160.708 48.8 161.716 49.664C162.724 50.528 163.308 51.664 163.468 53.072H159.22C159.14 52.64 158.948 52.312 158.644 52.088C158.356 51.848 157.964 51.728 157.468 51.728C157.084 51.728 156.788 51.8 156.58 51.944C156.388 52.088 156.292 52.288 156.292 52.544C156.292 52.864 156.476 53.112 156.844 53.288C157.212 53.448 157.804 53.616 158.62 53.792C159.596 54 160.404 54.232 161.044 54.488C161.7 54.744 162.268 55.16 162.748 55.736C163.244 56.296 163.492 57.064 163.492 58.04C163.492 58.824 163.26 59.528 162.796 60.152C162.348 60.776 161.7 61.272 160.852 61.64C160.02 61.992 159.036 62.168 157.9 62.168ZM179.255 48.416C180.791 48.416 182.007 48.936 182.903 49.976C183.815 51 184.271 52.392 184.271 54.152V62H179.567V54.776C179.567 54.008 179.367 53.408 178.967 52.976C178.567 52.528 178.031 52.304 177.359 52.304C176.655 52.304 176.103 52.528 175.703 52.976C175.303 53.408 175.103 54.008 175.103 54.776V62H170.399V44.24H175.103V50.456C175.519 49.848 176.079 49.36 176.783 48.992C177.503 48.608 178.327 48.416 179.255 48.416ZM189.228 47.288C188.396 47.288 187.724 47.064 187.212 46.616C186.716 46.152 186.468 45.576 186.468 44.888C186.468 44.184 186.716 43.6 187.212 43.136C187.724 42.672 188.396 42.44 189.228 42.44C190.044 42.44 190.7 42.672 191.196 43.136C191.708 43.6 191.964 44.184 191.964 44.888C191.964 45.576 191.708 46.152 191.196 46.616C190.7 47.064 190.044 47.288 189.228 47.288ZM191.556 48.536V62H186.852V48.536H191.556ZM196.587 47.288C195.755 47.288 195.083 47.064 194.571 46.616C194.075 46.152 193.827 45.576 193.827 44.888C193.827 44.184 194.075 43.6 194.571 43.136C195.083 42.672 195.755 42.44 196.587 42.44C197.403 42.44 198.059 42.672 198.555 43.136C199.067 43.6 199.323 44.184 199.323 44.888C199.323 45.576 199.067 46.152 198.555 46.616C198.059 47.064 197.403 47.288 196.587 47.288ZM198.939 63.32C198.939 66.728 197.227 68.432 193.803 68.432H192.099V64.424H193.107C193.507 64.424 193.795 64.344 193.971 64.184C194.147 64.024 194.235 63.76 194.235 63.392V48.536H198.939V63.32ZM207.858 62.168C206.514 62.168 205.306 61.888 204.234 61.328C203.178 60.768 202.346 59.968 201.738 58.928C201.13 57.888 200.826 56.664 200.826 55.256C200.826 53.864 201.13 52.648 201.738 51.608C202.362 50.568 203.202 49.768 204.258 49.208C205.33 48.648 206.538 48.368 207.882 48.368C209.226 48.368 210.426 48.648 211.482 49.208C212.554 49.768 213.394 50.568 214.002 51.608C214.626 52.648 214.938 53.864 214.938 55.256C214.938 56.648 214.626 57.872 214.002 58.928C213.394 59.968 212.554 60.768 211.482 61.328C210.41 61.888 209.202 62.168 207.858 62.168ZM207.858 58.088C208.514 58.088 209.058 57.848 209.49 57.368C209.938 56.872 210.162 56.168 210.162 55.256C210.162 54.344 209.938 53.648 209.49 53.168C209.058 52.688 208.522 52.448 207.882 52.448C207.242 52.448 206.706 52.688 206.274 53.168C205.842 53.648 205.626 54.344 205.626 55.256C205.626 56.184 205.834 56.888 206.25 57.368C206.666 57.848 207.202 58.088 207.858 58.088ZM222.588 62.168C221.372 62.168 220.284 61.968 219.324 61.568C218.38 61.152 217.628 60.592 217.068 59.888C216.524 59.168 216.22 58.36 216.156 57.464H220.716C220.78 57.896 220.98 58.232 221.316 58.472C221.652 58.712 222.068 58.832 222.564 58.832C222.948 58.832 223.252 58.752 223.476 58.592C223.7 58.432 223.812 58.224 223.812 57.968C223.812 57.632 223.628 57.384 223.26 57.224C222.892 57.064 222.284 56.888 221.436 56.696C220.476 56.504 219.676 56.288 219.036 56.048C218.396 55.808 217.836 55.416 217.356 54.872C216.892 54.328 216.66 53.592 216.66 52.664C216.66 51.864 216.876 51.144 217.308 50.504C217.74 49.848 218.372 49.328 219.204 48.944C220.052 48.56 221.068 48.368 222.252 48.368C224.012 48.368 225.396 48.8 226.404 49.664C227.412 50.528 227.996 51.664 228.156 53.072H223.908C223.828 52.64 223.636 52.312 223.332 52.088C223.044 51.848 222.652 51.728 222.156 51.728C221.772 51.728 221.476 51.8 221.268 51.944C221.076 52.088 220.98 52.288 220.98 52.544C220.98 52.864 221.164 53.112 221.532 53.288C221.9 53.448 222.492 53.616 223.308 53.792C224.284 54 225.092 54.232 225.732 54.488C226.388 54.744 226.956 55.16 227.436 55.736C227.932 56.296 228.18 57.064 228.18 58.04C228.18 58.824 227.948 59.528 227.484 60.152C227.036 60.776 226.388 61.272 225.54 61.64C224.708 61.992 223.724 62.168 222.588 62.168Z" fill="black"/>
<path d="M58.98 98.86H56.5L58.6 94.1H60.2L58.98 98.86ZM62.58 98.86H60.1L62.2 94.1H63.8L62.58 98.86ZM68.2175 106.16H72.9175V108H65.9375V94.1H68.2175V106.16ZM74.0642 102.44C74.0642 101.333 74.2909 100.353 74.7442 99.5C75.2109 98.6467 75.8376 97.9867 76.6242 97.52C77.4242 97.04 78.3042 96.8 79.2642 96.8C80.1309 96.8 80.8842 96.9733 81.5242 97.32C82.1776 97.6533 82.6976 98.0733 83.0842 98.58V96.98H85.3842V108H83.0842V106.36C82.6976 106.88 82.1709 107.313 81.5042 107.66C80.8376 108.007 80.0776 108.18 79.2242 108.18C78.2776 108.18 77.4109 107.94 76.6242 107.46C75.8376 106.967 75.2109 106.287 74.7442 105.42C74.2909 104.54 74.0642 103.547 74.0642 102.44ZM83.0842 102.48C83.0842 101.72 82.9242 101.06 82.6042 100.5C82.2976 99.94 81.8909 99.5133 81.3842 99.22C80.8776 98.9267 80.3309 98.78 79.7442 98.78C79.1576 98.78 78.6109 98.9267 78.1042 99.22C77.5976 99.5 77.1842 99.92 76.8642 100.48C76.5576 101.027 76.4042 101.68 76.4042 102.44C76.4042 103.2 76.5576 103.867 76.8642 104.44C77.1842 105.013 77.5976 105.453 78.1042 105.76C78.6242 106.053 79.1709 106.2 79.7442 106.2C80.3309 106.2 80.8776 106.053 81.3842 105.76C81.8909 105.467 82.2976 105.04 82.6042 104.48C82.9242 103.907 83.0842 103.24 83.0842 102.48ZM103.674 102.22C103.674 102.633 103.648 103.007 103.594 103.34H95.1742C95.2409 104.22 95.5676 104.927 96.1542 105.46C96.7409 105.993 97.4609 106.26 98.3142 106.26C99.5409 106.26 100.408 105.747 100.914 104.72H103.374C103.041 105.733 102.434 106.567 101.554 107.22C100.688 107.86 99.6076 108.18 98.3142 108.18C97.2609 108.18 96.3142 107.947 95.4742 107.48C94.6476 107 93.9942 106.333 93.5142 105.48C93.0476 104.613 92.8142 103.613 92.8142 102.48C92.8142 101.347 93.0409 100.353 93.4942 99.5C93.9609 98.6333 94.6076 97.9667 95.4342 97.5C96.2742 97.0333 97.2342 96.8 98.3142 96.8C99.3542 96.8 100.281 97.0267 101.094 97.48C101.908 97.9333 102.541 98.5733 102.994 99.4C103.448 100.213 103.674 101.153 103.674 102.22ZM101.294 101.5C101.281 100.66 100.981 99.9867 100.394 99.48C99.8076 98.9733 99.0809 98.72 98.2142 98.72C97.4276 98.72 96.7542 98.9733 96.1942 99.48C95.6342 99.9733 95.3009 100.647 95.1942 101.5H101.294ZM105.158 102.44C105.158 101.333 105.385 100.353 105.838 99.5C106.305 98.6467 106.931 97.9867 107.718 97.52C108.518 97.04 109.405 96.8 110.378 96.8C111.098 96.8 111.805 96.96 112.498 97.28C113.205 97.5867 113.765 98 114.178 98.52V93.2H116.478V108H114.178V106.34C113.805 106.873 113.285 107.313 112.618 107.66C111.965 108.007 111.211 108.18 110.358 108.18C109.398 108.18 108.518 107.94 107.718 107.46C106.931 106.967 106.305 106.287 105.838 105.42C105.385 104.54 105.158 103.547 105.158 102.44ZM114.178 102.48C114.178 101.72 114.018 101.06 113.698 100.5C113.391 99.94 112.985 99.5133 112.478 99.22C111.971 98.9267 111.425 98.78 110.838 98.78C110.251 98.78 109.705 98.9267 109.198 99.22C108.691 99.5 108.278 99.92 107.958 100.48C107.651 101.027 107.498 101.68 107.498 102.44C107.498 103.2 107.651 103.867 107.958 104.44C108.278 105.013 108.691 105.453 109.198 105.76C109.718 106.053 110.265 106.2 110.838 106.2C111.425 106.2 111.971 106.053 112.478 105.76C112.985 105.467 113.391 105.04 113.698 104.48C114.018 103.907 114.178 103.24 114.178 102.48ZM129.453 96.98V108H127.173V106.7C126.813 107.153 126.339 107.513 125.753 107.78C125.179 108.033 124.566 108.16 123.913 108.16C123.046 108.16 122.266 107.98 121.573 107.62C120.893 107.26 120.353 106.727 119.953 106.02C119.566 105.313 119.373 104.46 119.373 103.46V96.98H121.633V103.12C121.633 104.107 121.879 104.867 122.373 105.4C122.866 105.92 123.539 106.18 124.393 106.18C125.246 106.18 125.919 105.92 126.413 105.4C126.919 104.867 127.173 104.107 127.173 103.12V96.98H129.453ZM131.701 102.48C131.701 101.347 131.928 100.353 132.381 99.5C132.848 98.6333 133.488 97.9667 134.301 97.5C135.114 97.0333 136.048 96.8 137.101 96.8C138.434 96.8 139.534 97.12 140.401 97.76C141.281 98.3867 141.874 99.2867 142.181 100.46H139.721C139.521 99.9133 139.201 99.4867 138.761 99.18C138.321 98.8733 137.768 98.72 137.101 98.72C136.168 98.72 135.421 99.0533 134.861 99.72C134.314 100.373 134.041 101.293 134.041 102.48C134.041 103.667 134.314 104.593 134.861 105.26C135.421 105.927 136.168 106.26 137.101 106.26C138.421 106.26 139.294 105.68 139.721 104.52H142.181C141.861 105.64 141.261 106.533 140.381 107.2C139.501 107.853 138.408 108.18 137.101 108.18C136.048 108.18 135.114 107.947 134.301 107.48C133.488 107 132.848 106.333 132.381 105.48C131.928 104.613 131.701 103.613 131.701 102.48ZM143.693 102.44C143.693 101.333 143.92 100.353 144.373 99.5C144.84 98.6467 145.466 97.9867 146.253 97.52C147.053 97.04 147.933 96.8 148.893 96.8C149.76 96.8 150.513 96.9733 151.153 97.32C151.806 97.6533 152.326 98.0733 152.713 98.58V96.98H155.013V108H152.713V106.36C152.326 106.88 151.8 107.313 151.133 107.66C150.466 108.007 149.706 108.18 148.853 108.18C147.906 108.18 147.04 107.94 146.253 107.46C145.466 106.967 144.84 106.287 144.373 105.42C143.92 104.54 143.693 103.547 143.693 102.44ZM152.713 102.48C152.713 101.72 152.553 101.06 152.233 100.5C151.926 99.94 151.52 99.5133 151.013 99.22C150.506 98.9267 149.96 98.78 149.373 98.78C148.786 98.78 148.24 98.9267 147.733 99.22C147.226 99.5 146.813 99.92 146.493 100.48C146.186 101.027 146.033 101.68 146.033 102.44C146.033 103.2 146.186 103.867 146.493 104.44C146.813 105.013 147.226 105.453 147.733 105.76C148.253 106.053 148.8 106.2 149.373 106.2C149.96 106.2 150.506 106.053 151.013 105.76C151.52 105.467 151.926 105.04 152.233 104.48C152.553 103.907 152.713 103.24 152.713 102.48ZM157.248 102.48C157.248 101.347 157.474 100.353 157.928 99.5C158.394 98.6333 159.034 97.9667 159.848 97.5C160.661 97.0333 161.594 96.8 162.648 96.8C163.981 96.8 165.081 97.12 165.948 97.76C166.828 98.3867 167.421 99.2867 167.728 100.46H165.268C165.068 99.9133 164.748 99.4867 164.308 99.18C163.868 98.8733 163.314 98.72 162.648 98.72C161.714 98.72 160.968 99.0533 160.408 99.72C159.861 100.373 159.588 101.293 159.588 102.48C159.588 103.667 159.861 104.593 160.408 105.26C160.968 105.927 161.714 106.26 162.648 106.26C163.968 106.26 164.841 105.68 165.268 104.52H167.728C167.408 105.64 166.808 106.533 165.928 107.2C165.048 107.853 163.954 108.18 162.648 108.18C161.594 108.18 160.661 107.947 159.848 107.48C159.034 107 158.394 106.333 157.928 105.48C157.474 104.613 157.248 103.613 157.248 102.48ZM171.16 95.52C170.747 95.52 170.4 95.38 170.12 95.1C169.84 94.82 169.7 94.4733 169.7 94.06C169.7 93.6467 169.84 93.3 170.12 93.02C170.4 92.74 170.747 92.6 171.16 92.6C171.56 92.6 171.9 92.74 172.18 93.02C172.46 93.3 172.6 93.6467 172.6 94.06C172.6 94.4733 172.46 94.82 172.18 95.1C171.9 95.38 171.56 95.52 171.16 95.52ZM172.28 96.98V108H170V96.98H172.28ZM180.053 108.18C179.013 108.18 178.073 107.947 177.233 107.48C176.393 107 175.733 106.333 175.253 105.48C174.773 104.613 174.533 103.613 174.533 102.48C174.533 101.36 174.78 100.367 175.273 99.5C175.767 98.6333 176.44 97.9667 177.293 97.5C178.147 97.0333 179.1 96.8 180.153 96.8C181.207 96.8 182.16 97.0333 183.013 97.5C183.867 97.9667 184.54 98.6333 185.033 99.5C185.527 100.367 185.773 101.36 185.773 102.48C185.773 103.6 185.52 104.593 185.013 105.46C184.507 106.327 183.813 107 182.933 107.48C182.067 107.947 181.107 108.18 180.053 108.18ZM180.053 106.2C180.64 106.2 181.187 106.06 181.693 105.78C182.213 105.5 182.633 105.08 182.953 104.52C183.273 103.96 183.433 103.28 183.433 102.48C183.433 101.68 183.28 101.007 182.973 100.46C182.667 99.9 182.26 99.48 181.753 99.2C181.247 98.92 180.7 98.78 180.113 98.78C179.527 98.78 178.98 98.92 178.473 99.2C177.98 99.48 177.587 99.9 177.293 100.46C177 101.007 176.853 101.68 176.853 102.48C176.853 103.667 177.153 104.587 177.753 105.24C178.367 105.88 179.133 106.2 180.053 106.2ZM182.213 93.84L177.793 96.02V94.34L182.213 91.9V93.84ZM193.587 96.8C194.454 96.8 195.227 96.98 195.907 97.34C196.601 97.7 197.141 98.2333 197.527 98.94C197.914 99.6467 198.107 100.5 198.107 101.5V108H195.847V101.84C195.847 100.853 195.601 100.1 195.107 99.58C194.614 99.0467 193.941 98.78 193.087 98.78C192.234 98.78 191.554 99.0467 191.047 99.58C190.554 100.1 190.307 100.853 190.307 101.84V108H188.027V96.98H190.307V98.24C190.681 97.7867 191.154 97.4333 191.727 97.18C192.314 96.9267 192.934 96.8 193.587 96.8ZM216.311 102.22C216.311 102.633 216.284 103.007 216.231 103.34H207.811C207.878 104.22 208.204 104.927 208.791 105.46C209.378 105.993 210.098 106.26 210.951 106.26C212.178 106.26 213.044 105.747 213.551 104.72H216.011C215.678 105.733 215.071 106.567 214.191 107.22C213.324 107.86 212.244 108.18 210.951 108.18C209.898 108.18 208.951 107.947 208.111 107.48C207.284 107 206.631 106.333 206.151 105.48C205.684 104.613 205.451 103.613 205.451 102.48C205.451 101.347 205.678 100.353 206.131 99.5C206.598 98.6333 207.244 97.9667 208.071 97.5C208.911 97.0333 209.871 96.8 210.951 96.8C211.991 96.8 212.918 97.0267 213.731 97.48C214.544 97.9333 215.178 98.5733 215.631 99.4C216.084 100.213 216.311 101.153 216.311 102.22ZM213.931 101.5C213.918 100.66 213.618 99.9867 213.031 99.48C212.444 98.9733 211.718 98.72 210.851 98.72C210.064 98.72 209.391 98.9733 208.831 99.48C208.271 99.9733 207.938 100.647 207.831 101.5H213.931ZM222.555 108.18C221.688 108.18 220.908 108.027 220.215 107.72C219.535 107.4 218.995 106.973 218.595 106.44C218.195 105.893 217.981 105.287 217.955 104.62H220.315C220.355 105.087 220.575 105.48 220.975 105.8C221.388 106.107 221.901 106.26 222.515 106.26C223.155 106.26 223.648 106.14 223.995 105.9C224.355 105.647 224.535 105.327 224.535 104.94C224.535 104.527 224.335 104.22 223.935 104.02C223.548 103.82 222.928 103.6 222.075 103.36C221.248 103.133 220.575 102.913 220.055 102.7C219.535 102.487 219.081 102.16 218.695 101.72C218.321 101.28 218.135 100.7 218.135 99.98C218.135 99.3933 218.308 98.86 218.655 98.38C219.001 97.8867 219.495 97.5 220.135 97.22C220.788 96.94 221.535 96.8 222.375 96.8C223.628 96.8 224.635 97.12 225.395 97.76C226.168 98.3867 226.581 99.2467 226.635 100.34H224.355C224.315 99.8467 224.115 99.4533 223.755 99.16C223.395 98.8667 222.908 98.72 222.295 98.72C221.695 98.72 221.235 98.8333 220.915 99.06C220.595 99.2867 220.435 99.5867 220.435 99.96C220.435 100.253 220.541 100.5 220.755 100.7C220.968 100.9 221.228 101.06 221.535 101.18C221.841 101.287 222.295 101.427 222.895 101.6C223.695 101.813 224.348 102.033 224.855 102.26C225.375 102.473 225.821 102.793 226.195 103.22C226.568 103.647 226.761 104.213 226.775 104.92C226.775 105.547 226.601 106.107 226.255 106.6C225.908 107.093 225.415 107.48 224.775 107.76C224.148 108.04 223.408 108.18 222.555 108.18ZM244.534 102.22C244.534 102.633 244.507 103.007 244.454 103.34H236.034C236.1 104.22 236.427 104.927 237.014 105.46C237.6 105.993 238.32 106.26 239.174 106.26C240.4 106.26 241.267 105.747 241.774 104.72H244.234C243.9 105.733 243.294 106.567 242.414 107.22C241.547 107.86 240.467 108.18 239.174 108.18C238.12 108.18 237.174 107.947 236.334 107.48C235.507 107 234.854 106.333 234.374 105.48C233.907 104.613 233.674 103.613 233.674 102.48C233.674 101.347 233.9 100.353 234.354 99.5C234.82 98.6333 235.467 97.9667 236.294 97.5C237.134 97.0333 238.094 96.8 239.174 96.8C240.214 96.8 241.14 97.0267 241.954 97.48C242.767 97.9333 243.4 98.5733 243.854 99.4C244.307 100.213 244.534 101.153 244.534 102.22ZM242.154 101.5C242.14 100.66 241.84 99.9867 241.254 99.48C240.667 98.9733 239.94 98.72 239.074 98.72C238.287 98.72 237.614 98.9733 237.054 99.48C236.494 99.9733 236.16 100.647 236.054 101.5H242.154ZM249.057 93.2V108H246.777V93.2H249.057ZM256.486 102.44C256.486 101.333 256.713 100.353 257.166 99.5C257.633 98.6467 258.259 97.9867 259.046 97.52C259.846 97.04 260.726 96.8 261.686 96.8C262.553 96.8 263.306 96.9733 263.946 97.32C264.599 97.6533 265.119 98.0733 265.506 98.58V96.98H267.806V108H265.506V106.36C265.119 106.88 264.593 107.313 263.926 107.66C263.259 108.007 262.499 108.18 261.646 108.18C260.699 108.18 259.833 107.94 259.046 107.46C258.259 106.967 257.633 106.287 257.166 105.42C256.713 104.54 256.486 103.547 256.486 102.44ZM265.506 102.48C265.506 101.72 265.346 101.06 265.026 100.5C264.719 99.94 264.313 99.5133 263.806 99.22C263.299 98.9267 262.753 98.78 262.166 98.78C261.579 98.78 261.033 98.9267 260.526 99.22C260.019 99.5 259.606 99.92 259.286 100.48C258.979 101.027 258.826 101.68 258.826 102.44C258.826 103.2 258.979 103.867 259.286 104.44C259.606 105.013 260.019 105.453 260.526 105.76C261.046 106.053 261.593 106.2 262.166 106.2C262.753 106.2 263.299 106.053 263.806 105.76C264.313 105.467 264.719 105.04 265.026 104.48C265.346 103.907 265.506 103.24 265.506 102.48ZM273.081 98.58C273.414 98.02 273.854 97.5867 274.401 97.28C274.961 96.96 275.621 96.8 276.381 96.8V99.16H275.801C274.907 99.16 274.227 99.3867 273.761 99.84C273.307 100.293 273.081 101.08 273.081 102.2V108H270.801V96.98H273.081V98.58ZM291.817 96.8C292.683 96.8 293.457 96.98 294.137 97.34C294.83 97.7 295.37 98.2333 295.757 98.94C296.157 99.6467 296.357 100.5 296.357 101.5V108H294.097V101.84C294.097 100.853 293.85 100.1 293.357 99.58C292.863 99.0467 292.19 98.78 291.337 98.78C290.483 98.78 289.803 99.0467 289.297 99.58C288.803 100.1 288.557 100.853 288.557 101.84V108H286.297V101.84C286.297 100.853 286.05 100.1 285.557 99.58C285.063 99.0467 284.39 98.78 283.537 98.78C282.683 98.78 282.003 99.0467 281.497 99.58C281.003 100.1 280.757 100.853 280.757 101.84V108H278.477V96.98H280.757V98.24C281.13 97.7867 281.603 97.4333 282.177 97.18C282.75 96.9267 283.363 96.8 284.017 96.8C284.897 96.8 285.683 96.9867 286.377 97.36C287.07 97.7333 287.603 98.2733 287.977 98.98C288.31 98.3133 288.83 97.7867 289.537 97.4C290.243 97 291.003 96.8 291.817 96.8ZM298.498 102.44C298.498 101.333 298.724 100.353 299.178 99.5C299.644 98.6467 300.271 97.9867 301.058 97.52C301.858 97.04 302.738 96.8 303.698 96.8C304.564 96.8 305.318 96.9733 305.958 97.32C306.611 97.6533 307.131 98.0733 307.518 98.58V96.98H309.818V108H307.518V106.36C307.131 106.88 306.604 107.313 305.938 107.66C305.271 108.007 304.511 108.18 303.658 108.18C302.711 108.18 301.844 107.94 301.058 107.46C300.271 106.967 299.644 106.287 299.178 105.42C298.724 104.54 298.498 103.547 298.498 102.44ZM307.518 102.48C307.518 101.72 307.358 101.06 307.038 100.5C306.731 99.94 306.324 99.5133 305.818 99.22C305.311 98.9267 304.764 98.78 304.178 98.78C303.591 98.78 303.044 98.9267 302.538 99.22C302.031 99.5 301.618 99.92 301.298 100.48C300.991 101.027 300.838 101.68 300.838 102.44C300.838 103.2 300.991 103.867 301.298 104.44C301.618 105.013 302.031 105.453 302.538 105.76C303.058 106.053 303.604 106.2 304.178 106.2C304.764 106.2 305.311 106.053 305.818 105.76C306.324 105.467 306.731 105.04 307.038 104.48C307.358 103.907 307.518 103.24 307.518 102.48ZM331.348 96.8C332.214 96.8 332.988 96.98 333.668 97.34C334.361 97.7 334.901 98.2333 335.288 98.94C335.688 99.6467 335.888 100.5 335.888 101.5V108H333.628V101.84C333.628 100.853 333.381 100.1 332.888 99.58C332.394 99.0467 331.721 98.78 330.868 98.78C330.014 98.78 329.334 99.0467 328.828 99.58C328.334 100.1 328.088 100.853 328.088 101.84V108H325.828V101.84C325.828 100.853 325.581 100.1 325.088 99.58C324.594 99.0467 323.921 98.78 323.068 98.78C322.214 98.78 321.534 99.0467 321.028 99.58C320.534 100.1 320.288 100.853 320.288 101.84V108H318.008V96.98H320.288V98.24C320.661 97.7867 321.134 97.4333 321.708 97.18C322.281 96.9267 322.894 96.8 323.548 96.8C324.428 96.8 325.214 96.9867 325.908 97.36C326.601 97.7333 327.134 98.2733 327.508 98.98C327.841 98.3133 328.361 97.7867 329.068 97.4C329.774 97 330.534 96.8 331.348 96.8ZM338.029 102.44C338.029 101.333 338.256 100.353 338.709 99.5C339.176 98.6467 339.802 97.9867 340.589 97.52C341.389 97.04 342.269 96.8 343.229 96.8C344.096 96.8 344.849 96.9733 345.489 97.32C346.142 97.6533 346.662 98.0733 347.049 98.58V96.98H349.349V108H347.049V106.36C346.662 106.88 346.136 107.313 345.469 107.66C344.802 108.007 344.042 108.18 343.189 108.18C342.242 108.18 341.376 107.94 340.589 107.46C339.802 106.967 339.176 106.287 338.709 105.42C338.256 104.54 338.029 103.547 338.029 102.44ZM347.049 102.48C347.049 101.72 346.889 101.06 346.569 100.5C346.262 99.94 345.856 99.5133 345.349 99.22C344.842 98.9267 344.296 98.78 343.709 98.78C343.122 98.78 342.576 98.9267 342.069 99.22C341.562 99.5 341.149 99.92 340.829 100.48C340.522 101.027 340.369 101.68 340.369 102.44C340.369 103.2 340.522 103.867 340.829 104.44C341.149 105.013 341.562 105.453 342.069 105.76C342.589 106.053 343.136 106.2 343.709 106.2C344.296 106.2 344.842 106.053 345.349 105.76C345.856 105.467 346.262 105.04 346.569 104.48C346.889 103.907 347.049 103.24 347.049 102.48ZM346.129 94.02L341.709 96.2V94.52L346.129 92.08V94.02ZM356.344 108.18C355.477 108.18 354.697 108.027 354.004 107.72C353.324 107.4 352.784 106.973 352.384 106.44C351.984 105.893 351.77 105.287 351.744 104.62H354.104C354.144 105.087 354.364 105.48 354.764 105.8C355.177 106.107 355.69 106.26 356.304 106.26C356.944 106.26 357.437 106.14 357.784 105.9C358.144 105.647 358.324 105.327 358.324 104.94C358.324 104.527 358.124 104.22 357.724 104.02C357.337 103.82 356.717 103.6 355.864 103.36C355.037 103.133 354.364 102.913 353.844 102.7C353.324 102.487 352.87 102.16 352.484 101.72C352.11 101.28 351.924 100.7 351.924 99.98C351.924 99.3933 352.097 98.86 352.444 98.38C352.79 97.8867 353.284 97.5 353.924 97.22C354.577 96.94 355.324 96.8 356.164 96.8C357.417 96.8 358.424 97.12 359.184 97.76C359.957 98.3867 360.37 99.2467 360.424 100.34H358.144C358.104 99.8467 357.904 99.4533 357.544 99.16C357.184 98.8667 356.697 98.72 356.084 98.72C355.484 98.72 355.024 98.8333 354.704 99.06C354.384 99.2867 354.224 99.5867 354.224 99.96C354.224 100.253 354.33 100.5 354.544 100.7C354.757 100.9 355.017 101.06 355.324 101.18C355.63 101.287 356.084 101.427 356.684 101.6C357.484 101.813 358.137 102.033 358.644 102.26C359.164 102.473 359.61 102.793 359.984 103.22C360.357 103.647 360.55 104.213 360.564 104.92C360.564 105.547 360.39 106.107 360.044 106.6C359.697 107.093 359.204 107.48 358.564 107.76C357.937 108.04 357.197 108.18 356.344 108.18ZM59.78 128.6C60.1667 128.093 60.6933 127.667 61.36 127.32C62.0267 126.973 62.78 126.8 63.62 126.8C64.58 126.8 65.4533 127.04 66.24 127.52C67.04 127.987 67.6667 128.647 68.12 129.5C68.5733 130.353 68.8 131.333 68.8 132.44C68.8 133.547 68.5733 134.54 68.12 135.42C67.6667 136.287 67.04 136.967 66.24 137.46C65.4533 137.94 64.58 138.18 63.62 138.18C62.78 138.18 62.0333 138.013 61.38 137.68C60.7267 137.333 60.1933 136.907 59.78 136.4V143.24H57.5V126.98H59.78V128.6ZM66.48 132.44C66.48 131.68 66.32 131.027 66 130.48C65.6933 129.92 65.28 129.5 64.76 129.22C64.2533 128.927 63.7067 128.78 63.12 128.78C62.5467 128.78 62 128.927 61.48 129.22C60.9733 129.513 60.56 129.94 60.24 130.5C59.9333 131.06 59.78 131.72 59.78 132.48C59.78 133.24 59.9333 133.907 60.24 134.48C60.56 135.04 60.9733 135.467 61.48 135.76C62 136.053 62.5467 136.2 63.12 136.2C63.7067 136.2 64.2533 136.053 64.76 135.76C65.28 135.453 65.6933 135.013 66 134.44C66.32 133.867 66.48 133.2 66.48 132.44ZM75.8347 138.18C74.7947 138.18 73.8547 137.947 73.0147 137.48C72.1747 137 71.5147 136.333 71.0347 135.48C70.5547 134.613 70.3147 133.613 70.3147 132.48C70.3147 131.36 70.5614 130.367 71.0547 129.5C71.548 128.633 72.2214 127.967 73.0747 127.5C73.928 127.033 74.8814 126.8 75.9347 126.8C76.988 126.8 77.9414 127.033 78.7947 127.5C79.648 127.967 80.3214 128.633 80.8147 129.5C81.308 130.367 81.5547 131.36 81.5547 132.48C81.5547 133.6 81.3014 134.593 80.7947 135.46C80.288 136.327 79.5947 137 78.7147 137.48C77.848 137.947 76.888 138.18 75.8347 138.18ZM75.8347 136.2C76.4214 136.2 76.968 136.06 77.4747 135.78C77.9947 135.5 78.4147 135.08 78.7347 134.52C79.0547 133.96 79.2147 133.28 79.2147 132.48C79.2147 131.68 79.0614 131.007 78.7547 130.46C78.448 129.9 78.0414 129.48 77.5347 129.2C77.028 128.92 76.4814 128.78 75.8947 128.78C75.308 128.78 74.7614 128.92 74.2547 129.2C73.7614 129.48 73.368 129.9 73.0747 130.46C72.7814 131.007 72.6347 131.68 72.6347 132.48C72.6347 133.667 72.9347 134.587 73.5347 135.24C74.148 135.88 74.9147 136.2 75.8347 136.2ZM83.0486 132.44C83.0486 131.333 83.2753 130.353 83.7286 129.5C84.1953 128.647 84.8219 127.987 85.6086 127.52C86.4086 127.04 87.2953 126.8 88.2686 126.8C88.9886 126.8 89.6953 126.96 90.3886 127.28C91.0953 127.587 91.6553 128 92.0686 128.52V123.2H94.3686V138H92.0686V136.34C91.6953 136.873 91.1753 137.313 90.5086 137.66C89.8553 138.007 89.1019 138.18 88.2486 138.18C87.2886 138.18 86.4086 137.94 85.6086 137.46C84.8219 136.967 84.1953 136.287 83.7286 135.42C83.2753 134.54 83.0486 133.547 83.0486 132.44ZM92.0686 132.48C92.0686 131.72 91.9086 131.06 91.5886 130.5C91.2819 129.94 90.8753 129.513 90.3686 129.22C89.8619 128.927 89.3153 128.78 88.7286 128.78C88.1419 128.78 87.5953 128.927 87.0886 129.22C86.5819 129.5 86.1686 129.92 85.8486 130.48C85.5419 131.027 85.3886 131.68 85.3886 132.44C85.3886 133.2 85.5419 133.867 85.8486 134.44C86.1686 135.013 86.5819 135.453 87.0886 135.76C87.6086 136.053 88.1553 136.2 88.7286 136.2C89.3153 136.2 89.8619 136.053 90.3686 135.76C90.8753 135.467 91.2819 135.04 91.5886 134.48C91.9086 133.907 92.0686 133.24 92.0686 132.48ZM107.463 132.22C107.463 132.633 107.437 133.007 107.383 133.34H98.9633C99.0299 134.22 99.3566 134.927 99.9433 135.46C100.53 135.993 101.25 136.26 102.103 136.26C103.33 136.26 104.197 135.747 104.703 134.72H107.163C106.83 135.733 106.223 136.567 105.343 137.22C104.477 137.86 103.397 138.18 102.103 138.18C101.05 138.18 100.103 137.947 99.2633 137.48C98.4366 137 97.7833 136.333 97.3033 135.48C96.8366 134.613 96.6033 133.613 96.6033 132.48C96.6033 131.347 96.8299 130.353 97.2833 129.5C97.7499 128.633 98.3966 127.967 99.2233 127.5C100.063 127.033 101.023 126.8 102.103 126.8C103.143 126.8 104.07 127.027 104.883 127.48C105.697 127.933 106.33 128.573 106.783 129.4C107.237 130.213 107.463 131.153 107.463 132.22ZM105.083 131.5C105.07 130.66 104.77 129.987 104.183 129.48C103.597 128.973 102.87 128.72 102.003 128.72C101.217 128.72 100.543 128.973 99.9833 129.48C99.4233 129.973 99.0899 130.647 98.9833 131.5H105.083ZM111.987 128.58C112.32 128.02 112.76 127.587 113.307 127.28C113.867 126.96 114.527 126.8 115.287 126.8V129.16H114.707C113.814 129.16 113.134 129.387 112.667 129.84C112.214 130.293 111.987 131.08 111.987 132.2V138H109.707V126.98H111.987V128.58ZM122.163 138.18C121.123 138.18 120.183 137.947 119.343 137.48C118.503 137 117.843 136.333 117.363 135.48C116.883 134.613 116.643 133.613 116.643 132.48C116.643 131.36 116.889 130.367 117.383 129.5C117.876 128.633 118.549 127.967 119.403 127.5C120.256 127.033 121.209 126.8 122.263 126.8C123.316 126.8 124.269 127.033 125.123 127.5C125.976 127.967 126.649 128.633 127.143 129.5C127.636 130.367 127.883 131.36 127.883 132.48C127.883 133.6 127.629 134.593 127.123 135.46C126.616 136.327 125.923 137 125.043 137.48C124.176 137.947 123.216 138.18 122.163 138.18ZM122.163 136.2C122.749 136.2 123.296 136.06 123.803 135.78C124.323 135.5 124.743 135.08 125.063 134.52C125.383 133.96 125.543 133.28 125.543 132.48C125.543 131.68 125.389 131.007 125.083 130.46C124.776 129.9 124.369 129.48 123.863 129.2C123.356 128.92 122.809 128.78 122.223 128.78C121.636 128.78 121.089 128.92 120.583 129.2C120.089 129.48 119.696 129.9 119.403 130.46C119.109 131.007 118.963 131.68 118.963 132.48C118.963 133.667 119.263 134.587 119.863 135.24C120.476 135.88 121.243 136.2 122.163 136.2ZM134.137 138.18C133.27 138.18 132.49 138.027 131.797 137.72C131.117 137.4 130.577 136.973 130.177 136.44C129.777 135.893 129.563 135.287 129.537 134.62H131.897C131.937 135.087 132.157 135.48 132.557 135.8C132.97 136.107 133.483 136.26 134.097 136.26C134.737 136.26 135.23 136.14 135.577 135.9C135.937 135.647 136.117 135.327 136.117 134.94C136.117 134.527 135.917 134.22 135.517 134.02C135.13 133.82 134.51 133.6 133.657 133.36C132.83 133.133 132.157 132.913 131.637 132.7C131.117 132.487 130.663 132.16 130.277 131.72C129.903 131.28 129.717 130.7 129.717 129.98C129.717 129.393 129.89 128.86 130.237 128.38C130.583 127.887 131.077 127.5 131.717 127.22C132.37 126.94 133.117 126.8 133.957 126.8C135.21 126.8 136.217 127.12 136.977 127.76C137.75 128.387 138.163 129.247 138.217 130.34H135.937C135.897 129.847 135.697 129.453 135.337 129.16C134.977 128.867 134.49 128.72 133.877 128.72C133.277 128.72 132.817 128.833 132.497 129.06C132.177 129.287 132.017 129.587 132.017 129.96C132.017 130.253 132.123 130.5 132.337 130.7C132.55 130.9 132.81 131.06 133.117 131.18C133.423 131.287 133.877 131.427 134.477 131.6C135.277 131.813 135.93 132.033 136.437 132.26C136.957 132.473 137.403 132.793 137.777 133.22C138.15 133.647 138.343 134.213 138.357 134.92C138.357 135.547 138.183 136.107 137.837 136.6C137.49 137.093 136.997 137.48 136.357 137.76C135.73 138.04 134.99 138.18 134.137 138.18ZM140.06 132.44C140.06 131.333 140.287 130.353 140.74 129.5C141.207 128.647 141.834 127.987 142.62 127.52C143.42 127.04 144.3 126.8 145.26 126.8C146.127 126.8 146.88 126.973 147.52 127.32C148.174 127.653 148.694 128.073 149.08 128.58V126.98H151.38V138H149.08V136.36C148.694 136.88 148.167 137.313 147.5 137.66C146.834 138.007 146.074 138.18 145.22 138.18C144.274 138.18 143.407 137.94 142.62 137.46C141.834 136.967 141.207 136.287 140.74 135.42C140.287 134.54 140.06 133.547 140.06 132.44ZM149.08 132.48C149.08 131.72 148.92 131.06 148.6 130.5C148.294 129.94 147.887 129.513 147.38 129.22C146.874 128.927 146.327 128.78 145.74 128.78C145.154 128.78 144.607 128.927 144.1 129.22C143.594 129.5 143.18 129.92 142.86 130.48C142.554 131.027 142.4 131.68 142.4 132.44C142.4 133.2 142.554 133.867 142.86 134.44C143.18 135.013 143.594 135.453 144.1 135.76C144.62 136.053 145.167 136.2 145.74 136.2C146.327 136.2 146.874 136.053 147.38 135.76C147.887 135.467 148.294 135.04 148.6 134.48C148.92 133.907 149.08 133.24 149.08 132.48ZM158.81 132.44C158.81 131.333 159.037 130.353 159.49 129.5C159.957 128.647 160.584 127.987 161.37 127.52C162.17 127.04 163.057 126.8 164.03 126.8C164.884 126.8 165.637 126.973 166.29 127.32C166.957 127.667 167.47 128.087 167.83 128.58V126.98H170.13V143.24H167.83V136.4C167.47 136.893 166.95 137.313 166.27 137.66C165.59 138.007 164.817 138.18 163.95 138.18C163.004 138.18 162.137 137.94 161.35 137.46C160.577 136.967 159.957 136.287 159.49 135.42C159.037 134.54 158.81 133.547 158.81 132.44ZM167.83 132.48C167.83 131.72 167.67 131.06 167.35 130.5C167.044 129.94 166.637 129.513 166.13 129.22C165.624 128.927 165.077 128.78 164.49 128.78C163.904 128.78 163.357 128.927 162.85 129.22C162.344 129.5 161.93 129.92 161.61 130.48C161.304 131.027 161.15 131.68 161.15 132.44C161.15 133.2 161.304 133.867 161.61 134.44C161.93 135.013 162.344 135.453 162.85 135.76C163.37 136.053 163.917 136.2 164.49 136.2C165.077 136.2 165.624 136.053 166.13 135.76C166.637 135.467 167.044 135.04 167.35 134.48C167.67 133.907 167.83 133.24 167.83 132.48ZM183.105 126.98V138H180.825V136.7C180.465 137.153 179.992 137.513 179.405 137.78C178.832 138.033 178.218 138.16 177.565 138.16C176.698 138.16 175.918 137.98 175.225 137.62C174.545 137.26 174.005 136.727 173.605 136.02C173.218 135.313 173.025 134.46 173.025 133.46V126.98H175.285V133.12C175.285 134.107 175.532 134.867 176.025 135.4C176.518 135.92 177.192 136.18 178.045 136.18C178.898 136.18 179.572 135.92 180.065 135.4C180.572 134.867 180.825 134.107 180.825 133.12V126.98H183.105ZM196.213 132.22C196.213 132.633 196.187 133.007 196.133 133.34H187.713C187.78 134.22 188.107 134.927 188.693 135.46C189.28 135.993 190 136.26 190.853 136.26C192.08 136.26 192.947 135.747 193.453 134.72H195.913C195.58 135.733 194.973 136.567 194.093 137.22C193.227 137.86 192.147 138.18 190.853 138.18C189.8 138.18 188.853 137.947 188.013 137.48C187.187 137 186.533 136.333 186.053 135.48C185.587 134.613 185.353 133.613 185.353 132.48C185.353 131.347 185.58 130.353 186.033 129.5C186.5 128.633 187.147 127.967 187.973 127.5C188.813 127.033 189.773 126.8 190.853 126.8C191.893 126.8 192.82 127.027 193.633 127.48C194.447 127.933 195.08 128.573 195.533 129.4C195.987 130.213 196.213 131.153 196.213 132.22ZM193.833 131.5C193.82 130.66 193.52 129.987 192.933 129.48C192.347 128.973 191.62 128.72 190.753 128.72C189.967 128.72 189.293 128.973 188.733 129.48C188.173 129.973 187.84 130.647 187.733 131.5H193.833ZM205.932 128.6C206.319 128.093 206.846 127.667 207.512 127.32C208.179 126.973 208.932 126.8 209.772 126.8C210.732 126.8 211.606 127.04 212.392 127.52C213.192 127.987 213.819 128.647 214.272 129.5C214.726 130.353 214.952 131.333 214.952 132.44C214.952 133.547 214.726 134.54 214.272 135.42C213.819 136.287 213.192 136.967 212.392 137.46C211.606 137.94 210.732 138.18 209.772 138.18C208.932 138.18 208.186 138.013 207.532 137.68C206.879 137.333 206.346 136.907 205.932 136.4V143.24H203.652V126.98H205.932V128.6ZM212.632 132.44C212.632 131.68 212.472 131.027 212.152 130.48C211.846 129.92 211.432 129.5 210.912 129.22C210.406 128.927 209.859 128.78 209.272 128.78C208.699 128.78 208.152 128.927 207.632 129.22C207.126 129.513 206.712 129.94 206.392 130.5C206.086 131.06 205.932 131.72 205.932 132.48C205.932 133.24 206.086 133.907 206.392 134.48C206.712 135.04 207.126 135.467 207.632 135.76C208.152 136.053 208.699 136.2 209.272 136.2C209.859 136.2 210.406 136.053 210.912 135.76C211.432 135.453 211.846 135.013 212.152 134.44C212.472 133.867 212.632 133.2 212.632 132.44ZM227.187 126.98V138H224.907V136.7C224.547 137.153 224.074 137.513 223.487 137.78C222.914 138.033 222.3 138.16 221.647 138.16C220.78 138.16 220 137.98 219.307 137.62C218.627 137.26 218.087 136.727 217.687 136.02C217.3 135.313 217.107 134.46 217.107 133.46V126.98H219.367V133.12C219.367 134.107 219.614 134.867 220.107 135.4C220.6 135.92 221.274 136.18 222.127 136.18C222.98 136.18 223.654 135.92 224.147 135.4C224.654 134.867 224.907 134.107 224.907 133.12V126.98H227.187ZM240.295 132.22C240.295 132.633 240.269 133.007 240.215 133.34H231.795C231.862 134.22 232.189 134.927 232.775 135.46C233.362 135.993 234.082 136.26 234.935 136.26C236.162 136.26 237.029 135.747 237.535 134.72H239.995C239.662 135.733 239.055 136.567 238.175 137.22C237.309 137.86 236.229 138.18 234.935 138.18C233.882 138.18 232.935 137.947 232.095 137.48C231.269 137 230.615 136.333 230.135 135.48C229.669 134.613 229.435 133.613 229.435 132.48C229.435 131.347 229.662 130.353 230.115 129.5C230.582 128.633 231.229 127.967 232.055 127.5C232.895 127.033 233.855 126.8 234.935 126.8C235.975 126.8 236.902 127.027 237.715 127.48C238.529 127.933 239.162 128.573 239.615 129.4C240.069 130.213 240.295 131.153 240.295 132.22ZM237.915 131.5C237.902 130.66 237.602 129.987 237.015 129.48C236.429 128.973 235.702 128.72 234.835 128.72C234.049 128.72 233.375 128.973 232.815 129.48C232.255 129.973 231.922 130.647 231.815 131.5H237.915ZM241.779 132.44C241.779 131.333 242.006 130.353 242.459 129.5C242.926 128.647 243.552 127.987 244.339 127.52C245.139 127.04 246.026 126.8 246.999 126.8C247.719 126.8 248.426 126.96 249.119 127.28C249.826 127.587 250.386 128 250.799 128.52V123.2H253.099V138H250.799V136.34C250.426 136.873 249.906 137.313 249.239 137.66C248.586 138.007 247.832 138.18 246.979 138.18C246.019 138.18 245.139 137.94 244.339 137.46C243.552 136.967 242.926 136.287 242.459 135.42C242.006 134.54 241.779 133.547 241.779 132.44ZM250.799 132.48C250.799 131.72 250.639 131.06 250.319 130.5C250.012 129.94 249.606 129.513 249.099 129.22C248.592 128.927 248.046 128.78 247.459 128.78C246.872 128.78 246.326 128.927 245.819 129.22C245.312 129.5 244.899 129.92 244.579 130.48C244.272 131.027 244.119 131.68 244.119 132.44C244.119 133.2 244.272 133.867 244.579 134.44C244.899 135.013 245.312 135.453 245.819 135.76C246.339 136.053 246.886 136.2 247.459 136.2C248.046 136.2 248.592 136.053 249.099 135.76C249.606 135.467 250.012 135.04 250.319 134.48C250.639 133.907 250.799 133.24 250.799 132.48ZM266.194 132.22C266.194 132.633 266.167 133.007 266.114 133.34H257.694C257.76 134.22 258.087 134.927 258.674 135.46C259.26 135.993 259.98 136.26 260.834 136.26C262.06 136.26 262.927 135.747 263.434 134.72H265.894C265.56 135.733 264.954 136.567 264.074 137.22C263.207 137.86 262.127 138.18 260.834 138.18C259.78 138.18 258.834 137.947 257.994 137.48C257.167 137 256.514 136.333 256.034 135.48C255.567 134.613 255.334 133.613 255.334 132.48C255.334 131.347 255.56 130.353 256.014 129.5C256.48 128.633 257.127 127.967 257.954 127.5C258.794 127.033 259.754 126.8 260.834 126.8C261.874 126.8 262.8 127.027 263.614 127.48C264.427 127.933 265.06 128.573 265.514 129.4C265.967 130.213 266.194 131.153 266.194 132.22ZM263.814 131.5C263.8 130.66 263.5 129.987 262.914 129.48C262.327 128.973 261.6 128.72 260.734 128.72C259.947 128.72 259.274 128.973 258.714 129.48C258.154 129.973 257.82 130.647 257.714 131.5H263.814ZM272.438 138.18C271.571 138.18 270.791 138.027 270.098 137.72C269.418 137.4 268.878 136.973 268.478 136.44C268.078 135.893 267.864 135.287 267.838 134.62H270.198C270.238 135.087 270.458 135.48 270.858 135.8C271.271 136.107 271.784 136.26 272.398 136.26C273.038 136.26 273.531 136.14 273.878 135.9C274.238 135.647 274.418 135.327 274.418 134.94C274.418 134.527 274.218 134.22 273.818 134.02C273.431 133.82 272.811 133.6 271.958 133.36C271.131 133.133 270.458 132.913 269.938 132.7C269.418 132.487 268.964 132.16 268.578 131.72C268.204 131.28 268.018 130.7 268.018 129.98C268.018 129.393 268.191 128.86 268.538 128.38C268.884 127.887 269.378 127.5 270.018 127.22C270.671 126.94 271.418 126.8 272.258 126.8C273.511 126.8 274.518 127.12 275.278 127.76C276.051 128.387 276.464 129.247 276.518 130.34H274.238C274.198 129.847 273.998 129.453 273.638 129.16C273.278 128.867 272.791 128.72 272.178 128.72C271.578 128.72 271.118 128.833 270.798 129.06C270.478 129.287 270.318 129.587 270.318 129.96C270.318 130.253 270.424 130.5 270.638 130.7C270.851 130.9 271.111 131.06 271.418 131.18C271.724 131.287 272.178 131.427 272.778 131.6C273.578 131.813 274.231 132.033 274.738 132.26C275.258 132.473 275.704 132.793 276.078 133.22C276.451 133.647 276.644 134.213 276.658 134.92C276.658 135.547 276.484 136.107 276.138 136.6C275.791 137.093 275.298 137.48 274.658 137.76C274.031 138.04 273.291 138.18 272.438 138.18ZM294.296 126.98V138H292.016V136.7C291.656 137.153 291.183 137.513 290.596 137.78C290.023 138.033 289.41 138.16 288.756 138.16C287.89 138.16 287.11 137.98 286.416 137.62C285.736 137.26 285.196 136.727 284.796 136.02C284.41 135.313 284.216 134.46 284.216 133.46V126.98H286.476V133.12C286.476 134.107 286.723 134.867 287.216 135.4C287.71 135.92 288.383 136.18 289.236 136.18C290.09 136.18 290.763 135.92 291.256 135.4C291.763 134.867 292.016 134.107 292.016 133.12V126.98H294.296ZM301.305 138.18C300.438 138.18 299.658 138.027 298.965 137.72C298.285 137.4 297.745 136.973 297.345 136.44C296.945 135.893 296.731 135.287 296.705 134.62H299.065C299.105 135.087 299.325 135.48 299.725 135.8C300.138 136.107 300.651 136.26 301.265 136.26C301.905 136.26 302.398 136.14 302.745 135.9C303.105 135.647 303.285 135.327 303.285 134.94C303.285 134.527 303.085 134.22 302.685 134.02C302.298 133.82 301.678 133.6 300.825 133.36C299.998 133.133 299.325 132.913 298.805 132.7C298.285 132.487 297.831 132.16 297.445 131.72C297.071 131.28 296.885 130.7 296.885 129.98C296.885 129.393 297.058 128.86 297.405 128.38C297.751 127.887 298.245 127.5 298.885 127.22C299.538 126.94 300.285 126.8 301.125 126.8C302.378 126.8 303.385 127.12 304.145 127.76C304.918 128.387 305.331 129.247 305.385 130.34H303.105C303.065 129.847 302.865 129.453 302.505 129.16C302.145 128.867 301.658 128.72 301.045 128.72C300.445 128.72 299.985 128.833 299.665 129.06C299.345 129.287 299.185 129.587 299.185 129.96C299.185 130.253 299.291 130.5 299.505 130.7C299.718 130.9 299.978 131.06 300.285 131.18C300.591 131.287 301.045 131.427 301.645 131.6C302.445 131.813 303.098 132.033 303.605 132.26C304.125 132.473 304.571 132.793 304.945 133.22C305.318 133.647 305.511 134.213 305.525 134.92C305.525 135.547 305.351 136.107 305.005 136.6C304.658 137.093 304.165 137.48 303.525 137.76C302.898 138.04 302.158 138.18 301.305 138.18ZM307.228 132.44C307.228 131.333 307.455 130.353 307.908 129.5C308.375 128.647 309.002 127.987 309.788 127.52C310.588 127.04 311.468 126.8 312.428 126.8C313.295 126.8 314.048 126.973 314.688 127.32C315.342 127.653 315.862 128.073 316.248 128.58V126.98H318.548V138H316.248V136.36C315.862 136.88 315.335 137.313 314.668 137.66C314.002 138.007 313.242 138.18 312.388 138.18C311.442 138.18 310.575 137.94 309.788 137.46C309.002 136.967 308.375 136.287 307.908 135.42C307.455 134.54 307.228 133.547 307.228 132.44ZM316.248 132.48C316.248 131.72 316.088 131.06 315.768 130.5C315.462 129.94 315.055 129.513 314.548 129.22C314.042 128.927 313.495 128.78 312.908 128.78C312.322 128.78 311.775 128.927 311.268 129.22C310.762 129.5 310.348 129.92 310.028 130.48C309.722 131.027 309.568 131.68 309.568 132.44C309.568 133.2 309.722 133.867 310.028 134.44C310.348 135.013 310.762 135.453 311.268 135.76C311.788 136.053 312.335 136.2 312.908 136.2C313.495 136.2 314.042 136.053 314.548 135.76C315.055 135.467 315.462 135.04 315.768 134.48C316.088 133.907 316.248 133.24 316.248 132.48ZM323.823 128.58C324.156 128.02 324.596 127.587 325.143 127.28C325.703 126.96 326.363 126.8 327.123 126.8V129.16H326.543C325.65 129.16 324.97 129.387 324.503 129.84C324.05 130.293 323.823 131.08 323.823 132.2V138H321.543V126.98H323.823V128.58ZM336.694 128.6C337.081 128.093 337.607 127.667 338.274 127.32C338.941 126.973 339.694 126.8 340.534 126.8C341.494 126.8 342.367 127.04 343.154 127.52C343.954 127.987 344.581 128.647 345.034 129.5C345.487 130.353 345.714 131.333 345.714 132.44C345.714 133.547 345.487 134.54 345.034 135.42C344.581 136.287 343.954 136.967 343.154 137.46C342.367 137.94 341.494 138.18 340.534 138.18C339.694 138.18 338.947 138.013 338.294 137.68C337.641 137.333 337.107 136.907 336.694 136.4V143.24H334.414V126.98H336.694V128.6ZM343.394 132.44C343.394 131.68 343.234 131.027 342.914 130.48C342.607 129.92 342.194 129.5 341.674 129.22C341.167 128.927 340.621 128.78 340.034 128.78C339.461 128.78 338.914 128.927 338.394 129.22C337.887 129.513 337.474 129.94 337.154 130.5C336.847 131.06 336.694 131.72 336.694 132.48C336.694 133.24 336.847 133.907 337.154 134.48C337.474 135.04 337.887 135.467 338.394 135.76C338.914 136.053 339.461 136.2 340.034 136.2C340.621 136.2 341.167 136.053 341.674 135.76C342.194 135.453 342.607 135.013 342.914 134.44C343.234 133.867 343.394 133.2 343.394 132.44ZM347.209 132.44C347.209 131.333 347.435 130.353 347.889 129.5C348.355 128.647 348.982 127.987 349.769 127.52C350.569 127.04 351.449 126.8 352.409 126.8C353.275 126.8 354.029 126.973 354.669 127.32C355.322 127.653 355.842 128.073 356.229 128.58V126.98H358.529V138H356.229V136.36C355.842 136.88 355.315 137.313 354.649 137.66C353.982 138.007 353.222 138.18 352.369 138.18C351.422 138.18 350.555 137.94 349.769 137.46C348.982 136.967 348.355 136.287 347.889 135.42C347.435 134.54 347.209 133.547 347.209 132.44ZM356.229 132.48C356.229 131.72 356.069 131.06 355.749 130.5C355.442 129.94 355.035 129.513 354.529 129.22C354.022 128.927 353.475 128.78 352.889 128.78C352.302 128.78 351.755 128.927 351.249 129.22C350.742 129.5 350.329 129.92 350.009 130.48C349.702 131.027 349.549 131.68 349.549 132.44C349.549 133.2 349.702 133.867 350.009 134.44C350.329 135.013 350.742 135.453 351.249 135.76C351.769 136.053 352.315 136.2 352.889 136.2C353.475 136.2 354.022 136.053 354.529 135.76C355.035 135.467 355.442 135.04 355.749 134.48C356.069 133.907 356.229 133.24 356.229 132.48ZM363.803 128.58C364.137 128.02 364.577 127.587 365.123 127.28C365.683 126.96 366.343 126.8 367.103 126.8V129.16H366.523C365.63 129.16 364.95 129.387 364.483 129.84C364.03 130.293 363.803 131.08 363.803 132.2V138H361.523V126.98H363.803V128.58ZM368.439 132.44C368.439 131.333 368.666 130.353 369.119 129.5C369.586 128.647 370.213 127.987 370.999 127.52C371.799 127.04 372.679 126.8 373.639 126.8C374.506 126.8 375.259 126.973 375.899 127.32C376.553 127.653 377.073 128.073 377.459 128.58V126.98H379.759V138H377.459V136.36C377.073 136.88 376.546 137.313 375.879 137.66C375.213 138.007 374.453 138.18 373.599 138.18C372.653 138.18 371.786 137.94 370.999 137.46C370.213 136.967 369.586 136.287 369.119 135.42C368.666 134.54 368.439 133.547 368.439 132.44ZM377.459 132.48C377.459 131.72 377.299 131.06 376.979 130.5C376.673 129.94 376.266 129.513 375.759 129.22C375.253 128.927 374.706 128.78 374.119 128.78C373.533 128.78 372.986 128.927 372.479 129.22C371.973 129.5 371.559 129.92 371.239 130.48C370.933 131.027 370.779 131.68 370.779 132.44C370.779 133.2 370.933 133.867 371.239 134.44C371.559 135.013 371.973 135.453 372.479 135.76C372.999 136.053 373.546 136.2 374.119 136.2C374.706 136.2 375.253 136.053 375.759 135.76C376.266 135.467 376.673 135.04 376.979 134.48C377.299 133.907 377.459 133.24 377.459 132.48ZM56.74 162.48C56.74 161.347 56.9667 160.353 57.42 159.5C57.8867 158.633 58.5267 157.967 59.34 157.5C60.1533 157.033 61.0867 156.8 62.14 156.8C63.4733 156.8 64.5733 157.12 65.44 157.76C66.32 158.387 66.9133 159.287 67.22 160.46H64.76C64.56 159.913 64.24 159.487 63.8 159.18C63.36 158.873 62.8067 158.72 62.14 158.72C61.2067 158.72 60.46 159.053 59.9 159.72C59.3533 160.373 59.08 161.293 59.08 162.48C59.08 163.667 59.3533 164.593 59.9 165.26C60.46 165.927 61.2067 166.26 62.14 166.26C63.46 166.26 64.3333 165.68 64.76 164.52H67.22C66.9 165.64 66.3 166.533 65.42 167.2C64.54 167.853 63.4467 168.18 62.14 168.18C61.0867 168.18 60.1533 167.947 59.34 167.48C58.5267 167 57.8867 166.333 57.42 165.48C56.9667 164.613 56.74 163.613 56.74 162.48ZM68.7322 162.44C68.7322 161.333 68.9589 160.353 69.4122 159.5C69.8789 158.647 70.5055 157.987 71.2922 157.52C72.0922 157.04 72.9722 156.8 73.9322 156.8C74.7989 156.8 75.5522 156.973 76.1922 157.32C76.8455 157.653 77.3655 158.073 77.7522 158.58V156.98H80.0522V168H77.7522V166.36C77.3655 166.88 76.8389 167.313 76.1722 167.66C75.5055 168.007 74.7455 168.18 73.8922 168.18C72.9455 168.18 72.0789 167.94 71.2922 167.46C70.5055 166.967 69.8789 166.287 69.4122 165.42C68.9589 164.54 68.7322 163.547 68.7322 162.44ZM77.7522 162.48C77.7522 161.72 77.5922 161.06 77.2722 160.5C76.9655 159.94 76.5589 159.513 76.0522 159.22C75.5455 158.927 74.9989 158.78 74.4122 158.78C73.8255 158.78 73.2789 158.927 72.7722 159.22C72.2655 159.5 71.8522 159.92 71.5322 160.48C71.2255 161.027 71.0722 161.68 71.0722 162.44C71.0722 163.2 71.2255 163.867 71.5322 164.44C71.8522 165.013 72.2655 165.453 72.7722 165.76C73.2922 166.053 73.8389 166.2 74.4122 166.2C74.9989 166.2 75.5455 166.053 76.0522 165.76C76.5589 165.467 76.9655 165.04 77.2722 164.48C77.5922 163.907 77.7522 163.24 77.7522 162.48ZM96.3869 156.8C97.2535 156.8 98.0269 156.98 98.7069 157.34C99.4002 157.7 99.9402 158.233 100.327 158.94C100.727 159.647 100.927 160.5 100.927 161.5V168H98.6669V161.84C98.6669 160.853 98.4202 160.1 97.9269 159.58C97.4335 159.047 96.7602 158.78 95.9069 158.78C95.0535 158.78 94.3735 159.047 93.8669 159.58C93.3735 160.1 93.1269 160.853 93.1269 161.84V168H90.8669V161.84C90.8669 160.853 90.6202 160.1 90.1269 159.58C89.6335 159.047 88.9602 158.78 88.1069 158.78C87.2535 158.78 86.5735 159.047 86.0669 159.58C85.5735 160.1 85.3269 160.853 85.3269 161.84V168H83.0469V156.98H85.3269V158.24C85.7002 157.787 86.1735 157.433 86.7469 157.18C87.3202 156.927 87.9335 156.8 88.5869 156.8C89.4669 156.8 90.2535 156.987 90.9469 157.36C91.6402 157.733 92.1735 158.273 92.5469 158.98C92.8802 158.313 93.4002 157.787 94.1069 157.4C94.8135 157 95.5735 156.8 96.3869 156.8ZM106.108 158.62C106.495 158.087 107.021 157.653 107.688 157.32C108.368 156.973 109.121 156.8 109.948 156.8C110.921 156.8 111.801 157.033 112.588 157.5C113.375 157.967 113.995 158.633 114.448 159.5C114.901 160.353 115.128 161.333 115.128 162.44C115.128 163.547 114.901 164.54 114.448 165.42C113.995 166.287 113.368 166.967 112.568 167.46C111.781 167.94 110.908 168.18 109.948 168.18C109.095 168.18 108.335 168.013 107.668 167.68C107.015 167.347 106.495 166.92 106.108 166.4V168H103.828V153.2H106.108V158.62ZM112.808 162.44C112.808 161.68 112.648 161.027 112.328 160.48C112.021 159.92 111.608 159.5 111.088 159.22C110.581 158.927 110.035 158.78 109.448 158.78C108.875 158.78 108.328 158.927 107.808 159.22C107.301 159.513 106.888 159.94 106.568 160.5C106.261 161.06 106.108 161.72 106.108 162.48C106.108 163.24 106.261 163.907 106.568 164.48C106.888 165.04 107.301 165.467 107.808 165.76C108.328 166.053 108.875 166.2 109.448 166.2C110.035 166.2 110.581 166.053 111.088 165.76C111.608 165.453 112.021 165.013 112.328 164.44C112.648 163.867 112.808 163.2 112.808 162.44ZM118.543 155.52C118.129 155.52 117.783 155.38 117.503 155.1C117.223 154.82 117.083 154.473 117.083 154.06C117.083 153.647 117.223 153.3 117.503 153.02C117.783 152.74 118.129 152.6 118.543 152.6C118.943 152.6 119.283 152.74 119.563 153.02C119.843 153.3 119.983 153.647 119.983 154.06C119.983 154.473 119.843 154.82 119.563 155.1C119.283 155.38 118.943 155.52 118.543 155.52ZM119.663 156.98V168H117.383V156.98H119.663ZM121.896 162.44C121.896 161.333 122.123 160.353 122.576 159.5C123.043 158.647 123.67 157.987 124.456 157.52C125.256 157.04 126.136 156.8 127.096 156.8C127.963 156.8 128.716 156.973 129.356 157.32C130.01 157.653 130.53 158.073 130.916 158.58V156.98H133.216V168H130.916V166.36C130.53 166.88 130.003 167.313 129.336 167.66C128.67 168.007 127.91 168.18 127.056 168.18C126.11 168.18 125.243 167.94 124.456 167.46C123.67 166.967 123.043 166.287 122.576 165.42C122.123 164.54 121.896 163.547 121.896 162.44ZM130.916 162.48C130.916 161.72 130.756 161.06 130.436 160.5C130.13 159.94 129.723 159.513 129.216 159.22C128.71 158.927 128.163 158.78 127.576 158.78C126.99 158.78 126.443 158.927 125.936 159.22C125.43 159.5 125.016 159.92 124.696 160.48C124.39 161.027 124.236 161.68 124.236 162.44C124.236 163.2 124.39 163.867 124.696 164.44C125.016 165.013 125.43 165.453 125.936 165.76C126.456 166.053 127.003 166.2 127.576 166.2C128.163 166.2 128.71 166.053 129.216 165.76C129.723 165.467 130.13 165.04 130.436 164.48C130.756 163.907 130.916 163.24 130.916 162.48ZM138.491 158.58C138.824 158.02 139.264 157.587 139.811 157.28C140.371 156.96 141.031 156.8 141.791 156.8V159.16H141.211C140.318 159.16 139.638 159.387 139.171 159.84C138.718 160.293 138.491 161.08 138.491 162.2V168H136.211V156.98H138.491V158.58ZM159.182 162.22C159.182 162.633 159.155 163.007 159.102 163.34H150.682C150.749 164.22 151.075 164.927 151.662 165.46C152.249 165.993 152.969 166.26 153.822 166.26C155.049 166.26 155.915 165.747 156.422 164.72H158.882C158.549 165.733 157.942 166.567 157.062 167.22C156.195 167.86 155.115 168.18 153.822 168.18C152.769 168.18 151.822 167.947 150.982 167.48C150.155 167 149.502 166.333 149.022 165.48C148.555 164.613 148.322 163.613 148.322 162.48C148.322 161.347 148.549 160.353 149.002 159.5C149.469 158.633 150.115 157.967 150.942 157.5C151.782 157.033 152.742 156.8 153.822 156.8C154.862 156.8 155.789 157.027 156.602 157.48C157.415 157.933 158.049 158.573 158.502 159.4C158.955 160.213 159.182 161.153 159.182 162.22ZM156.802 161.5C156.789 160.66 156.489 159.987 155.902 159.48C155.315 158.973 154.589 158.72 153.722 158.72C152.935 158.72 152.262 158.973 151.702 159.48C151.142 159.973 150.809 160.647 150.702 161.5H156.802ZM163.706 153.2V168H161.426V153.2H163.706ZM185.235 156.8C186.101 156.8 186.875 156.98 187.555 157.34C188.248 157.7 188.788 158.233 189.175 158.94C189.575 159.647 189.775 160.5 189.775 161.5V168H187.515V161.84C187.515 160.853 187.268 160.1 186.775 159.58C186.281 159.047 185.608 158.78 184.755 158.78C183.901 158.78 183.221 159.047 182.715 159.58C182.221 160.1 181.975 160.853 181.975 161.84V168H179.715V161.84C179.715 160.853 179.468 160.1 178.975 159.58C178.481 159.047 177.808 158.78 176.955 158.78C176.101 158.78 175.421 159.047 174.915 159.58C174.421 160.1 174.175 160.853 174.175 161.84V168H171.895V156.98H174.175V158.24C174.548 157.787 175.021 157.433 175.595 157.18C176.168 156.927 176.781 156.8 177.435 156.8C178.315 156.8 179.101 156.987 179.795 157.36C180.488 157.733 181.021 158.273 181.395 158.98C181.728 158.313 182.248 157.787 182.955 157.4C183.661 157 184.421 156.8 185.235 156.8ZM202.656 156.98V168H200.376V166.7C200.016 167.153 199.542 167.513 198.956 167.78C198.382 168.033 197.769 168.16 197.116 168.16C196.249 168.16 195.469 167.98 194.776 167.62C194.096 167.26 193.556 166.727 193.156 166.02C192.769 165.313 192.576 164.46 192.576 163.46V156.98H194.836V163.12C194.836 164.107 195.082 164.867 195.576 165.4C196.069 165.92 196.742 166.18 197.596 166.18C198.449 166.18 199.122 165.92 199.616 165.4C200.122 164.867 200.376 164.107 200.376 163.12V156.98H202.656ZM211.224 156.8C212.091 156.8 212.864 156.98 213.544 157.34C214.237 157.7 214.777 158.233 215.164 158.94C215.551 159.647 215.744 160.5 215.744 161.5V168H213.484V161.84C213.484 160.853 213.237 160.1 212.744 159.58C212.251 159.047 211.577 158.78 210.724 158.78C209.871 158.78 209.191 159.047 208.684 159.58C208.191 160.1 207.944 160.853 207.944 161.84V168H205.664V156.98H207.944V158.24C208.317 157.787 208.791 157.433 209.364 157.18C209.951 156.927 210.571 156.8 211.224 156.8ZM217.892 162.44C217.892 161.333 218.119 160.353 218.572 159.5C219.039 158.647 219.666 157.987 220.452 157.52C221.252 157.04 222.139 156.8 223.112 156.8C223.832 156.8 224.539 156.96 225.232 157.28C225.939 157.587 226.499 158 226.912 158.52V153.2H229.212V168H226.912V166.34C226.539 166.873 226.019 167.313 225.352 167.66C224.699 168.007 223.946 168.18 223.092 168.18C222.132 168.18 221.252 167.94 220.452 167.46C219.666 166.967 219.039 166.287 218.572 165.42C218.119 164.54 217.892 163.547 217.892 162.44ZM226.912 162.48C226.912 161.72 226.752 161.06 226.432 160.5C226.126 159.94 225.719 159.513 225.212 159.22C224.706 158.927 224.159 158.78 223.572 158.78C222.986 158.78 222.439 158.927 221.932 159.22C221.426 159.5 221.012 159.92 220.692 160.48C220.386 161.027 220.232 161.68 220.232 162.44C220.232 163.2 220.386 163.867 220.692 164.44C221.012 165.013 221.426 165.453 221.932 165.76C222.452 166.053 222.999 166.2 223.572 166.2C224.159 166.2 224.706 166.053 225.212 165.76C225.719 165.467 226.126 165.04 226.432 164.48C226.752 163.907 226.912 163.24 226.912 162.48ZM236.987 168.18C235.947 168.18 235.007 167.947 234.167 167.48C233.327 167 232.667 166.333 232.187 165.48C231.707 164.613 231.467 163.613 231.467 162.48C231.467 161.36 231.714 160.367 232.207 159.5C232.7 158.633 233.374 157.967 234.227 157.5C235.08 157.033 236.034 156.8 237.087 156.8C238.14 156.8 239.094 157.033 239.947 157.5C240.8 157.967 241.474 158.633 241.967 159.5C242.46 160.367 242.707 161.36 242.707 162.48C242.707 163.6 242.454 164.593 241.947 165.46C241.44 166.327 240.747 167 239.867 167.48C239 167.947 238.04 168.18 236.987 168.18ZM236.987 166.2C237.574 166.2 238.12 166.06 238.627 165.78C239.147 165.5 239.567 165.08 239.887 164.52C240.207 163.96 240.367 163.28 240.367 162.48C240.367 161.68 240.214 161.007 239.907 160.46C239.6 159.9 239.194 159.48 238.687 159.2C238.18 158.92 237.634 158.78 237.047 158.78C236.46 158.78 235.914 158.92 235.407 159.2C234.914 159.48 234.52 159.9 234.227 160.46C233.934 161.007 233.787 161.68 233.787 162.48C233.787 163.667 234.087 164.587 234.687 165.24C235.3 165.88 236.067 166.2 236.987 166.2ZM245.321 154.1H247.801L245.701 158.86H244.101L245.321 154.1ZM248.921 154.1H251.401L249.301 158.86H247.701L248.921 154.1Z" fill="black"/>
<path d="M206.8 209H203.38L197.66 200.34V209H194.24V194.96H197.66L203.38 203.66V194.96H206.8V209ZM219.799 203.24C219.799 203.56 219.779 203.893 219.739 204.24H211.999C212.052 204.933 212.272 205.467 212.659 205.84C213.059 206.2 213.546 206.38 214.119 206.38C214.972 206.38 215.566 206.02 215.899 205.3H219.539C219.352 206.033 219.012 206.693 218.519 207.28C218.039 207.867 217.432 208.327 216.699 208.66C215.966 208.993 215.146 209.16 214.239 209.16C213.146 209.16 212.172 208.927 211.319 208.46C210.466 207.993 209.799 207.327 209.319 206.46C208.839 205.593 208.599 204.58 208.599 203.42C208.599 202.26 208.832 201.247 209.299 200.38C209.779 199.513 210.446 198.847 211.299 198.38C212.152 197.913 213.132 197.68 214.239 197.68C215.319 197.68 216.279 197.907 217.119 198.36C217.959 198.813 218.612 199.46 219.079 200.3C219.559 201.14 219.799 202.12 219.799 203.24ZM216.299 202.34C216.299 201.753 216.099 201.287 215.699 200.94C215.299 200.593 214.799 200.42 214.199 200.42C213.626 200.42 213.139 200.587 212.739 200.92C212.352 201.253 212.112 201.727 212.019 202.34H216.299ZM225.023 194.2V209H221.603V194.2H225.023ZM232.042 209.16C231.068 209.16 230.202 208.993 229.442 208.66C228.682 208.327 228.082 207.873 227.642 207.3C227.202 206.713 226.955 206.06 226.902 205.34H230.282C230.322 205.727 230.502 206.04 230.822 206.28C231.142 206.52 231.535 206.64 232.002 206.64C232.428 206.64 232.755 206.56 232.982 206.4C233.222 206.227 233.342 206.007 233.342 205.74C233.342 205.42 233.175 205.187 232.842 205.04C232.508 204.88 231.968 204.707 231.222 204.52C230.422 204.333 229.755 204.14 229.222 203.94C228.688 203.727 228.228 203.4 227.842 202.96C227.455 202.507 227.262 201.9 227.262 201.14C227.262 200.5 227.435 199.92 227.782 199.4C228.142 198.867 228.662 198.447 229.342 198.14C230.035 197.833 230.855 197.68 231.802 197.68C233.202 197.68 234.302 198.027 235.102 198.72C235.915 199.413 236.382 200.333 236.502 201.48H233.342C233.288 201.093 233.115 200.787 232.822 200.56C232.542 200.333 232.168 200.22 231.702 200.22C231.302 200.22 230.995 200.3 230.782 200.46C230.568 200.607 230.462 200.813 230.462 201.08C230.462 201.4 230.628 201.64 230.962 201.8C231.308 201.96 231.842 202.12 232.562 202.28C233.388 202.493 234.062 202.707 234.582 202.92C235.102 203.12 235.555 203.453 235.942 203.92C236.342 204.373 236.548 204.987 236.562 205.76C236.562 206.413 236.375 207 236.002 207.52C235.642 208.027 235.115 208.427 234.422 208.72C233.742 209.013 232.948 209.16 232.042 209.16ZM243.734 209.16C242.641 209.16 241.654 208.927 240.774 208.46C239.907 207.993 239.221 207.327 238.714 206.46C238.221 205.593 237.974 204.58 237.974 203.42C237.974 202.273 238.227 201.267 238.734 200.4C239.241 199.52 239.934 198.847 240.814 198.38C241.694 197.913 242.681 197.68 243.774 197.68C244.867 197.68 245.854 197.913 246.734 198.38C247.614 198.847 248.307 199.52 248.814 200.4C249.321 201.267 249.574 202.273 249.574 203.42C249.574 204.567 249.314 205.58 248.794 206.46C248.287 207.327 247.587 207.993 246.694 208.46C245.814 208.927 244.827 209.16 243.734 209.16ZM243.734 206.2C244.387 206.2 244.941 205.96 245.394 205.48C245.861 205 246.094 204.313 246.094 203.42C246.094 202.527 245.867 201.84 245.414 201.36C244.974 200.88 244.427 200.64 243.774 200.64C243.107 200.64 242.554 200.88 242.114 201.36C241.674 201.827 241.454 202.513 241.454 203.42C241.454 204.313 241.667 205 242.094 205.48C242.534 205.96 243.081 206.2 243.734 206.2ZM258.188 197.72C259.495 197.72 260.535 198.147 261.308 199C262.095 199.84 262.488 201 262.488 202.48V209H259.088V202.94C259.088 202.193 258.895 201.613 258.508 201.2C258.122 200.787 257.602 200.58 256.948 200.58C256.295 200.58 255.775 200.787 255.388 201.2C255.002 201.613 254.808 202.193 254.808 202.94V209H251.388V197.84H254.808V199.32C255.155 198.827 255.622 198.44 256.208 198.16C256.795 197.867 257.455 197.72 258.188 197.72ZM285.003 194.96V209H281.583V200.58L278.443 209H275.683L272.523 200.56V209H269.103V194.96H273.143L277.083 204.68L280.983 194.96H285.003ZM286.783 203.4C286.783 202.253 286.996 201.247 287.423 200.38C287.863 199.513 288.456 198.847 289.203 198.38C289.949 197.913 290.783 197.68 291.703 197.68C292.489 197.68 293.176 197.84 293.763 198.16C294.363 198.48 294.823 198.9 295.143 199.42V197.84H298.563V209H295.143V207.42C294.809 207.94 294.343 208.36 293.743 208.68C293.156 209 292.469 209.16 291.683 209.16C290.776 209.16 289.949 208.927 289.203 208.46C288.456 207.98 287.863 207.307 287.423 206.44C286.996 205.56 286.783 204.547 286.783 203.4ZM295.143 203.42C295.143 202.567 294.903 201.893 294.423 201.4C293.956 200.907 293.383 200.66 292.703 200.66C292.023 200.66 291.443 200.907 290.963 201.4C290.496 201.88 290.263 202.547 290.263 203.4C290.263 204.253 290.496 204.933 290.963 205.44C291.443 205.933 292.023 206.18 292.703 206.18C293.383 206.18 293.956 205.933 294.423 205.44C294.903 204.947 295.143 204.273 295.143 203.42ZM307.837 197.72C309.144 197.72 310.184 198.147 310.957 199C311.744 199.84 312.137 201 312.137 202.48V209H308.737V202.94C308.737 202.193 308.544 201.613 308.157 201.2C307.77 200.787 307.25 200.58 306.597 200.58C305.944 200.58 305.424 200.787 305.037 201.2C304.65 201.613 304.457 202.193 304.457 202.94V209H301.037V197.84H304.457V199.32C304.804 198.827 305.27 198.44 305.857 198.16C306.444 197.867 307.104 197.72 307.837 197.72ZM313.833 203.4C313.833 202.253 314.047 201.247 314.473 200.38C314.913 199.513 315.507 198.847 316.253 198.38C317 197.913 317.833 197.68 318.753 197.68C319.487 197.68 320.153 197.833 320.753 198.14C321.367 198.447 321.847 198.86 322.193 199.38V194.2H325.613V209H322.193V207.4C321.873 207.933 321.413 208.36 320.813 208.68C320.227 209 319.54 209.16 318.753 209.16C317.833 209.16 317 208.927 316.253 208.46C315.507 207.98 314.913 207.307 314.473 206.44C314.047 205.56 313.833 204.547 313.833 203.4ZM322.193 203.42C322.193 202.567 321.953 201.893 321.473 201.4C321.007 200.907 320.433 200.66 319.753 200.66C319.073 200.66 318.493 200.907 318.013 201.4C317.547 201.88 317.313 202.547 317.313 203.4C317.313 204.253 317.547 204.933 318.013 205.44C318.493 205.933 319.073 206.18 319.753 206.18C320.433 206.18 321.007 205.933 321.473 205.44C321.953 204.947 322.193 204.273 322.193 203.42ZM338.608 203.24C338.608 203.56 338.588 203.893 338.548 204.24H330.808C330.861 204.933 331.081 205.467 331.468 205.84C331.868 206.2 332.354 206.38 332.928 206.38C333.781 206.38 334.374 206.02 334.708 205.3H338.348C338.161 206.033 337.821 206.693 337.328 207.28C336.848 207.867 336.241 208.327 335.508 208.66C334.774 208.993 333.954 209.16 333.048 209.16C331.954 209.16 330.981 208.927 330.128 208.46C329.274 207.993 328.608 207.327 328.128 206.46C327.648 205.593 327.408 204.58 327.408 203.42C327.408 202.26 327.641 201.247 328.108 200.38C328.588 199.513 329.254 198.847 330.108 198.38C330.961 197.913 331.941 197.68 333.048 197.68C334.128 197.68 335.088 197.907 335.928 198.36C336.768 198.813 337.421 199.46 337.888 200.3C338.368 201.14 338.608 202.12 338.608 203.24ZM335.108 202.34C335.108 201.753 334.908 201.287 334.508 200.94C334.108 200.593 333.608 200.42 333.008 200.42C332.434 200.42 331.948 200.587 331.548 200.92C331.161 201.253 330.921 201.727 330.828 202.34H335.108ZM343.832 194.2V209H340.412V194.2H343.832ZM345.63 203.4C345.63 202.253 345.844 201.247 346.27 200.38C346.71 199.513 347.304 198.847 348.05 198.38C348.797 197.913 349.63 197.68 350.55 197.68C351.337 197.68 352.024 197.84 352.61 198.16C353.21 198.48 353.67 198.9 353.99 199.42V197.84H357.41V209H353.99V207.42C353.657 207.94 353.19 208.36 352.59 208.68C352.004 209 351.317 209.16 350.53 209.16C349.624 209.16 348.797 208.927 348.05 208.46C347.304 207.98 346.71 207.307 346.27 206.44C345.844 205.56 345.63 204.547 345.63 203.4ZM353.99 203.42C353.99 202.567 353.75 201.893 353.27 201.4C352.804 200.907 352.23 200.66 351.55 200.66C350.87 200.66 350.29 200.907 349.81 201.4C349.344 201.88 349.11 202.547 349.11 203.4C349.11 204.253 349.344 204.933 349.81 205.44C350.29 205.933 350.87 206.18 351.55 206.18C352.23 206.18 352.804 205.933 353.27 205.44C353.75 204.947 353.99 204.273 353.99 203.42ZM362.053 209.192C361.333 209.192 360.741 208.984 360.277 208.568C359.829 208.136 359.605 207.608 359.605 206.984C359.605 206.344 359.829 205.808 360.277 205.376C360.741 204.944 361.333 204.728 362.053 204.728C362.757 204.728 363.333 204.944 363.781 205.376C364.245 205.808 364.477 206.344 364.477 206.984C364.477 207.608 364.245 208.136 363.781 208.568C363.333 208.984 362.757 209.192 362.053 209.192Z" fill="black"/>
<rect y="201.149" width="63.8519" height="113" transform="rotate(-41.3084 0 201.149)" fill="#426EF0"/>
<path d="M319 0L356.239 57H281.761L319 0Z" fill="#FFDE59"/>
<path d="M452.5 211C452.5 237.51 432.577 259 408 259C383.423 259 363.5 237.51 363.5 211C363.5 184.49 383.423 163 408 163C432.577 163 452.5 184.49 452.5 211Z" fill="#58B9A8"/>
</svg>
