<svg width="100" height="100" viewBox="0 0 100 100" fill="none" xmlns="http://www.w3.org/2000/svg">
<path d="M25.806 43.75C29.634 43.75 33.3759 42.6503 36.5588 40.5901C39.7416 38.5298 42.2223 35.6014 43.6872 32.1753C45.1521 28.7492 45.5354 24.9792 44.7886 21.3421C44.0418 17.7049 42.1985 14.364 39.4917 11.7418C36.7849 9.11952 33.3363 7.33376 29.5819 6.61029C25.8275 5.88681 21.9359 6.25813 18.3994 7.67727C14.8628 9.09641 11.84 11.4996 9.71332 14.5831C7.58662 17.6665 6.4515 21.2916 6.4515 25C6.4571 29.9712 8.49803 34.7371 12.1265 38.2523C15.7549 41.7674 20.6746 43.7446 25.806 43.75ZM25.806 9.37501C28.996 9.37501 32.1143 10.2914 34.7666 12.0083C37.419 13.7252 39.4863 16.1655 40.707 19.0206C41.9278 21.8757 42.2472 25.0173 41.6248 28.0483C41.0025 31.0792 39.4664 33.8634 37.2107 36.0485C34.9551 38.2337 32.0812 39.7219 28.9526 40.3248C25.8239 40.9277 22.5809 40.6182 19.6338 39.4356C16.6866 38.253 14.1677 36.2503 12.3954 33.6808C10.6232 31.1113 9.67725 28.0903 9.67725 25C9.68228 20.8575 11.3832 16.886 14.4068 13.9568C17.4304 11.0276 21.5299 9.37988 25.806 9.37501ZM25.806 50C30.9099 50 35.8993 48.5338 40.143 45.7867C44.3868 43.0397 47.6944 39.1352 49.6476 34.5671C51.6008 29.9989 52.1119 24.9723 51.1161 20.1228C50.1204 15.2732 47.6626 10.8187 44.0536 7.32234C40.4446 3.82603 35.8464 1.44501 30.8405 0.480379C25.8346 -0.484251 20.6459 0.010832 15.9305 1.90302C11.215 3.79521 7.18469 6.99953 4.34909 11.1108C1.5135 15.222 0 20.0555 0 25C0.00782893 31.6281 2.72918 37.9825 7.56705 42.6693C12.4049 47.3561 18.9642 49.9924 25.806 50ZM25.806 3.12501C30.2719 3.12501 34.6376 4.40796 38.3509 6.81161C42.0642 9.21527 44.9584 12.6317 46.6674 16.6288C48.3765 20.6259 48.8236 25.0243 47.9524 29.2676C47.0811 33.5109 44.9305 37.4087 41.7726 40.468C38.6147 43.5272 34.5913 45.6106 30.2112 46.4547C25.831 47.2987 21.2909 46.8655 17.1649 45.2099C13.0389 43.5542 9.51236 40.7504 7.03121 37.1531C4.55006 33.5558 3.22575 29.3265 3.22575 25C3.23246 19.2004 5.6136 13.6402 9.84676 9.53923C14.0799 5.43828 19.8194 3.13151 25.806 3.12501ZM25.2028 29.6509C25.406 29.6752 25.6106 29.6874 25.8154 29.6875C26.8139 29.6864 27.7873 29.3853 28.6016 28.8256C29.4158 28.2658 30.0308 27.4751 30.3615 26.5625H33.8704C34.2981 26.5625 34.7084 26.3979 35.0108 26.1049C35.3133 25.8118 35.4832 25.4144 35.4832 25C35.4832 24.5856 35.3133 24.1882 35.0108 23.8952C34.7084 23.6021 34.2981 23.4375 33.8704 23.4375H30.3467C30.0958 22.711 29.658 22.0584 29.0746 21.5412C28.4913 21.024 27.7816 20.6592 27.0124 20.4813V15.2268C27.0124 14.8124 26.8425 14.4149 26.54 14.1219C26.2376 13.8289 25.8273 13.6643 25.3996 13.6643C24.9718 13.6643 24.5616 13.8289 24.2591 14.1219C23.9566 14.4149 23.7867 14.8124 23.7867 15.2268V20.7514C22.8318 21.1762 22.0459 21.8909 21.5479 22.7873C21.05 23.6837 20.8673 24.7129 21.0274 25.7189C21.1874 26.725 21.6816 27.6531 22.4351 28.3626C23.1885 29.0721 24.1602 29.5244 25.2028 29.6509ZM24.8169 23.7671C25.098 23.5532 25.4453 23.4371 25.8028 23.4375C25.8712 23.4378 25.9396 23.4419 26.0075 23.4497C26.3785 23.4944 26.722 23.6624 26.9795 23.9249C27.2369 24.1875 27.3924 24.5284 27.4195 24.8896C27.4465 25.2508 27.3434 25.61 27.1277 25.9058C26.912 26.2016 26.5972 26.4158 26.2367 26.5118C25.8763 26.6079 25.4926 26.5799 25.1511 26.4326C24.8096 26.2853 24.5314 26.0278 24.3639 25.7041C24.1964 25.3803 24.15 25.0103 24.2326 24.6571C24.3152 24.3039 24.5216 23.9893 24.8168 23.7671H24.8169ZM14.4387 75H11.2129C9.93008 75.0014 8.70017 75.4957 7.79305 76.3744C6.88594 77.2532 6.37571 78.4447 6.37431 79.6875V98.4375C6.37418 98.6427 6.41582 98.846 6.49683 99.0356C6.57784 99.2252 6.69664 99.3975 6.84643 99.5426C6.99623 99.6877 7.17408 99.8028 7.36982 99.8813C7.56555 99.9598 7.77534 100 7.98718 100H17.6644C17.8763 100 18.0861 99.9598 18.2818 99.8813C18.4775 99.8028 18.6554 99.6877 18.8052 99.5426C18.955 99.3975 19.0738 99.2252 19.1548 99.0356C19.2358 98.846 19.2774 98.6427 19.2773 98.4375V79.6875C19.2759 78.4447 18.7657 77.2532 17.8586 76.3744C16.9514 75.4957 15.7215 75.0014 14.4387 75ZM16.0516 96.875H9.60006V79.6875C9.60035 79.2732 9.77037 78.8759 10.0728 78.583C10.3752 78.29 10.7853 78.1253 11.2129 78.125H14.4387C14.8664 78.1253 15.2764 78.29 15.5788 78.583C15.8812 78.8759 16.0513 79.2732 16.0516 79.6875V96.875ZM40.2447 65.625H37.0189C35.7361 65.6264 34.5062 66.1207 33.5991 66.9994C32.6919 67.8782 32.1817 69.0697 32.1803 70.3125V98.4375C32.1802 98.6427 32.2218 98.846 32.3028 99.0356C32.3838 99.2252 32.5026 99.3975 32.6524 99.5426C32.8022 99.6877 32.9801 99.8028 33.1758 99.8813C33.3716 99.9598 33.5813 100 33.7932 100H43.4704C43.6823 100 43.8921 99.9598 44.0878 99.8813C44.2835 99.8028 44.4614 99.6877 44.6112 99.5426C44.761 99.3975 44.8798 99.2252 44.9608 99.0356C45.0418 98.846 45.0834 98.6427 45.0833 98.4375V70.3125C45.0819 69.0697 44.5717 67.8782 43.6646 66.9994C42.7574 66.1207 41.5275 65.6264 40.2447 65.625ZM41.8576 96.875H35.4061V70.3125C35.4063 69.8982 35.5764 69.5009 35.8788 69.208C36.1812 68.915 36.5913 68.7503 37.0189 68.75H40.2447C40.6723 68.7503 41.0824 68.915 41.3848 69.208C41.6872 69.5009 41.8573 69.8982 41.8576 70.3125V96.875ZM66.0507 53.125H62.8249C61.5421 53.1264 60.3122 53.6207 59.405 54.4994C58.4979 55.3782 57.9877 56.5697 57.9863 57.8125V98.4375C57.9862 98.6427 58.0278 98.846 58.1088 99.0356C58.1898 99.2252 58.3086 99.3975 58.4584 99.5426C58.6082 99.6877 58.7861 99.8028 58.9818 99.8813C59.1775 99.9598 59.3873 100 59.5992 100H69.2764C69.4883 100 69.6981 99.9598 69.8938 99.8813C70.0895 99.8028 70.2674 99.6877 70.4172 99.5426C70.567 99.3975 70.6858 99.2252 70.7668 99.0356C70.8478 98.846 70.8894 98.6427 70.8893 98.4375V57.8125C70.8879 56.5697 70.3777 55.3782 69.4706 54.4994C68.5634 53.6207 67.3335 53.1264 66.0507 53.125ZM67.6636 96.875H61.212V57.8125C61.2123 57.3982 61.3824 57.0009 61.6848 56.708C61.9872 56.415 62.3973 56.2503 62.8249 56.25H66.0507C66.4783 56.2503 66.8884 56.415 67.1908 56.708C67.4932 57.0009 67.6633 57.3982 67.6636 57.8125V96.875ZM91.8567 31.25H88.6309C87.3481 31.2514 86.1182 31.7457 85.211 32.6244C84.3039 33.5032 83.7937 34.6947 83.7923 35.9375V98.4375C83.7922 98.6427 83.8338 98.846 83.9148 99.0356C83.9958 99.2252 84.1146 99.3975 84.2644 99.5426C84.4142 99.6877 84.5921 99.8028 84.7878 99.8813C84.9835 99.9598 85.1933 100 85.4052 100H95.0824C95.2943 100 95.5041 99.9598 95.6998 99.8813C95.8955 99.8028 96.0734 99.6877 96.2232 99.5426C96.373 99.3975 96.4918 99.2252 96.5728 99.0356C96.6538 98.846 96.6954 98.6427 96.6953 98.4375V35.9375C96.6939 34.6947 96.1837 33.5032 95.2766 32.6244C94.3694 31.7457 93.1395 31.2514 91.8567 31.25ZM93.4695 96.875H87.018V35.9375C87.0183 35.5232 87.1884 35.1259 87.4908 34.833C87.7932 34.54 88.2032 34.3753 88.6309 34.375H91.8567C92.2843 34.3753 92.6944 34.54 92.9968 34.833C93.2992 35.1259 93.4693 35.5232 93.4695 35.9375V96.875ZM99.9146 13.5651L96.6118 4.04064C96.5436 3.84441 96.4358 3.66326 96.2947 3.5077C96.1536 3.35213 95.9821 3.22525 95.79 3.13441C95.5979 3.04357 95.3891 2.99058 95.1757 2.9785C94.9623 2.96643 94.7486 2.99551 94.5469 3.06407L84.9469 6.33851C84.7471 6.40663 84.5631 6.51222 84.4054 6.64923C84.2477 6.78624 84.1194 6.952 84.0278 7.13705C83.9363 7.32209 83.8832 7.52279 83.8717 7.7277C83.8602 7.9326 83.8905 8.13769 83.9608 8.33126C84.0312 8.52483 84.1401 8.70308 84.2816 8.85585C84.423 9.00861 84.5941 9.13289 84.7851 9.2216C84.9761 9.3103 85.1833 9.36169 85.3948 9.37283C85.6063 9.38396 85.818 9.35463 86.0178 9.28651L91.6907 7.35151C83.3351 21.6237 72.0877 34.1125 58.6242 44.0674C43.427 54.7362 26.0325 62.103 7.62809 65.6647C7.24184 65.7503 6.90162 65.9706 6.67234 66.2836C6.44306 66.5967 6.34077 66.9805 6.38497 67.362C6.42917 67.7434 6.61678 68.0958 6.91201 68.3518C7.20724 68.6078 7.58941 68.7495 7.98563 68.75C8.10704 68.7502 8.22807 68.7369 8.34634 68.7103C27.1983 65.0532 45.0133 57.4969 60.5742 46.5576C74.5201 36.2447 86.1469 23.2833 94.743 8.46654L96.8559 14.5599C96.9229 14.7551 97.0289 14.9354 97.168 15.0908C97.3071 15.2461 97.4764 15.3733 97.6663 15.4651C97.8562 15.5569 98.063 15.6115 98.2747 15.6258C98.4864 15.6401 98.699 15.6137 98.9002 15.5483C99.1014 15.4829 99.2873 15.3796 99.4472 15.2444C99.6072 15.1093 99.738 14.9449 99.8322 14.7606C99.9265 14.5764 99.9823 14.376 99.9964 14.1708C100.011 13.9657 99.9828 13.7598 99.9147 13.5651H99.9146Z" fill="white"/>
</svg>
