<svg width="100" height="100" viewBox="0 0 100 100" fill="none" xmlns="http://www.w3.org/2000/svg">
<path fill-rule="evenodd" clip-rule="evenodd" d="M54.5802 47.3806C46.0429 53.3585 43.9654 65.1428 49.9433 73.6801C55.9209 82.217 67.705 84.2952 76.2423 78.3173C84.7797 72.3394 86.8572 60.5552 80.8796 52.0183C74.9017 43.4809 63.1176 41.4027 54.5802 47.3806ZM56.8209 50.5807C63.5922 45.8394 72.9386 47.4874 77.6799 54.2587C82.421 61.0296 80.7732 70.3764 74.0019 75.1177C67.2306 79.859 57.8839 78.2106 53.1429 71.4397C48.4016 64.6684 50.0496 55.322 56.8209 50.5807Z" fill="white"/>
<path fill-rule="evenodd" clip-rule="evenodd" d="M73.9804 78.476L75.9822 81.3349C76.6005 82.2179 77.8193 82.4328 78.7024 81.8145C79.5854 81.1962 79.8003 79.9774 79.182 79.0944L77.1802 76.2355C76.5619 75.3525 75.3431 75.1375 74.46 75.7558C73.577 76.3741 73.3621 77.593 73.9804 78.476Z" fill="black"/>
<path fill-rule="evenodd" clip-rule="evenodd" d="M84.7712 81.2819C83.1995 79.0373 80.4169 77.979 77.7507 78.6124C77.0341 78.7827 76.4093 79.2201 76.0042 79.8353C74.4971 82.124 74.5399 85.1008 76.1115 87.3454C77.3907 89.1721 79.0903 91.5995 80.384 93.4471C81.1879 94.5951 82.4152 95.3769 83.7954 95.6204C85.1754 95.8636 86.5956 95.5488 87.7437 94.7449C87.7445 94.7444 87.7453 94.7438 87.7458 94.7435C88.8938 93.9396 89.6757 92.7125 89.9191 91.3325C90.1624 89.9523 89.8475 88.5317 89.0436 87.3836L84.7712 81.2819ZM81.5712 83.5225C80.9985 82.7046 80.0391 82.2659 79.0645 82.3475C78.6547 83.2353 78.7386 84.287 79.3113 85.1049C80.5904 86.9317 82.2901 89.3591 83.5838 91.2066C83.7935 91.5062 84.1136 91.7098 84.4734 91.7734C84.8334 91.8368 85.2038 91.7547 85.5032 91.5451C85.5039 91.5445 85.5047 91.544 85.5055 91.5435C85.8048 91.3339 86.0087 91.0139 86.072 90.6541C86.1355 90.2941 86.0534 89.9238 85.8436 89.6242L81.5712 83.5225Z" fill="white"/>
<path fill-rule="evenodd" clip-rule="evenodd" d="M8.7039 25.8823C8.68245 25.4083 8.50255 19.1331 13.7399 12.9409C16.626 9.52889 21.3471 5.88581 29.474 3.94491C40.2324 1.37502 49 4.27495 54.7093 9.2099C64.3854 17.5748 66.2205 32.0683 55.3134 42.462C52.3255 45.3094 48.4306 46.9638 44.3031 48.2391C42.9254 48.6646 41.525 49.0542 40.204 49.5662C39.4574 49.8568 38.6672 50.0707 38.1738 50.7246C37.4397 51.6981 37.4438 53.1927 37.5594 55.3751C37.8127 60.1648 34.1294 64.2597 29.3398 64.513C24.5494 64.7662 20.4552 61.083 20.202 56.2926C19.8449 49.5434 21.2848 44.9683 23.3413 41.6525C25.6718 37.8945 28.9405 35.4976 32.7407 33.8446C34.7799 32.9575 36.9906 32.305 39.1723 31.631C40.6676 31.1695 42.2397 30.9107 43.3219 29.879C45.788 27.5292 45.5292 24.2507 43.3413 22.3596C41.1202 20.4388 37.6507 20.0721 33.4209 20.8706C28.5441 21.7909 26.8875 24.7019 26.2765 26.4518C24.3571 31.9493 21.9962 34.3338 17.52 34.3995C12.7393 34.4694 8.798 30.6574 8.7039 25.8823ZM22.5892 25.1641C21.3887 28.6017 20.2615 30.4526 17.4625 30.4935C14.8221 30.5322 12.6473 28.4197 12.6086 25.7792L12.6065 25.7045C12.6065 25.7045 12.4016 20.573 16.7228 15.4637C19.2208 12.5098 23.3462 9.42442 30.3812 7.74438C39.6539 5.52946 47.2342 7.91181 52.1546 12.1652C60.148 19.075 61.6287 31.0484 52.6189 39.6347C50.0601 42.0732 46.6855 43.4148 43.1496 44.5067C41.6848 44.9593 40.1957 45.3793 38.7911 45.9252C37.3636 46.4788 35.9984 47.1223 35.056 48.3719C33.9059 49.8956 33.4783 52.1645 33.6589 55.5813C33.798 58.2183 31.7706 60.4727 29.1329 60.6118C26.4959 60.7515 24.2422 58.7234 24.1024 56.0864C23.8015 50.3903 24.9259 46.5099 26.6613 43.711C28.5475 40.6692 31.2233 38.765 34.299 37.4268C36.2087 36.5957 38.2825 35.9944 40.3251 35.3634C42.4106 34.7192 44.5079 34.1449 46.017 32.707C50.3798 28.5491 49.7667 22.7506 45.896 19.4043C42.9261 16.8372 38.351 15.9647 32.6964 17.0324C25.7175 18.3491 23.4631 22.6599 22.5892 25.1641Z" fill="white"/>
<path fill-rule="evenodd" clip-rule="evenodd" d="M20.3066 76.1527V77.7541C20.3066 82.5514 24.2011 86.4451 28.9976 86.4451C33.7942 86.4451 37.6887 82.5514 37.6887 77.7541V76.1527C37.6887 71.3554 33.7942 67.4617 28.9976 67.4617C24.2011 67.4617 20.3066 71.3554 20.3066 76.1527ZM24.213 76.1527C24.213 73.5115 26.3572 71.3674 28.9976 71.3674C31.6381 71.3674 33.7823 73.5115 33.7823 76.1527V77.7541C33.7823 80.3953 31.6381 82.5394 28.9976 82.5394C26.3572 82.5394 24.213 80.3953 24.213 77.7541V76.1527Z" fill="white"/>
</svg>
