<svg width="100" height="100" viewBox="0 0 100 100" fill="none" xmlns="http://www.w3.org/2000/svg">
<path d="M28.3509 55.5532H20.2247C19.0787 55.5532 18.141 56.518 18.141 57.6973V91.3594C18.141 92.5386 19.0787 93.5034 20.2247 93.5034H28.3509C29.4969 93.5034 30.4346 92.5386 30.4346 91.3594V57.6973C30.4346 56.518 29.4969 55.5532 28.3509 55.5532ZM26.2673 89.2153H22.3083V59.8413H26.2673V89.2153ZM11.8901 73.9923H3.76382C2.61781 73.9923 1.68017 74.9571 1.68017 76.1364V91.3594C1.68017 92.5386 2.61781 93.5034 3.76382 93.5034H11.8901C13.0361 93.5034 13.9737 92.5386 13.9737 91.3594V76.1364C13.9737 74.9571 13.0361 73.9923 11.8901 73.9923ZM9.80642 89.2153H5.84747V78.2804H9.80642V89.2153ZM3.59713 63.5506L42.1447 23.8851L50.0209 32.0112C50.8335 32.8473 52.1463 32.8473 52.9589 32.0112L76.9834 7.28988L76.9626 16.7453C76.9626 17.9245 77.8794 18.8679 79.0254 18.8679C79.0254 18.8679 79.0254 18.8679 79.0462 18.8679C80.1922 18.8679 81.1299 17.9245 81.1299 16.7453L81.1507 2.07976C81.1507 1.5223 80.9215 0.986279 80.5464 0.600344C80.1506 0.214409 79.6296 0 79.0671 0H64.8149C63.6689 0.0428816 62.752 1.02916 62.7937 2.20841C62.8354 3.34477 63.7105 4.26672 64.8149 4.28816L74.0454 4.24528L51.5003 27.4657L43.6033 19.3396C42.7907 18.5034 41.4779 18.5034 40.6653 19.3396L0.638341 60.5274C-0.19512 61.3422 -0.215956 62.7144 0.596669 63.5506C1.40929 64.3868 2.72199 64.4297 3.53462 63.5935C3.55545 63.5935 3.57629 63.572 3.59713 63.5506ZM79.4004 61.235V29.2024C79.4213 28.0232 78.5045 27.0583 77.3585 27.0369H69.2947C68.1487 27.0369 67.1069 28.0232 67.1069 29.2024V58.9194C65.7733 59.0266 64.4606 59.2196 63.1479 59.5197V40.3731C63.1479 39.1724 62.2103 38.2076 61.0643 38.1861H53.0005C51.8337 38.2076 50.8752 39.1724 50.8544 40.3731V65.2015C49.6042 66.1664 48.1456 67.217 46.8954 68.3748V52.6801C46.8954 51.5009 45.9161 50.6218 44.7701 50.6218H36.7064C35.5604 50.6218 34.6019 51.4794 34.6019 52.6801V91.3808C34.6227 92.56 35.5604 93.5249 36.7064 93.5034H44.7701C45.937 93.5034 46.8746 92.56 46.8954 91.3808V90.4803C52.5213 95.3045 60.1266 100 68.6905 100C75.7957 100 83.4011 96.6338 90.7147 90.2873C94.0068 87.4357 96.9865 84.2196 99.6119 80.7033C100.133 79.9528 100.133 78.9237 99.591 78.1732C99.2368 77.6587 91.0689 66.295 79.4004 61.235ZM71.2742 31.325H75.2331V59.777C73.9413 59.4125 72.6077 59.1552 71.2742 59.0266V31.325ZM55.0217 42.4743H58.9806V60.8062C57.7304 61.3208 56.4803 61.9211 55.0217 62.6286V42.4743ZM38.7692 54.91H42.7281V72.3413C41.3113 73.7136 39.9777 75.193 38.7692 76.7796V54.91ZM42.7281 89.2153H38.7692V82.0755C39.9777 83.6621 41.3113 85.1415 42.7281 86.5137V89.2153ZM68.6696 95.7118C63.773 95.7118 55.9802 93.7822 46.6662 84.5412C45.041 82.9331 43.4991 81.2178 42.0614 79.4168C43.3949 77.7444 44.8326 76.1364 46.3329 74.6355C48.7499 72.1698 51.417 69.9828 54.2507 68.0746C56.5844 66.488 59.1265 65.223 61.7727 64.3225C64.0022 63.572 66.3151 63.1647 68.6488 63.1432C68.8363 63.1432 69.003 63.1432 69.1489 63.1432C69.1697 63.1432 69.1905 63.1432 69.2114 63.1432C71.6701 63.229 74.0871 63.7221 76.4 64.6012C85.4639 67.9674 92.7358 76.2436 95.257 79.3954C92.0482 83.4477 81.2132 95.7118 68.6696 95.7118Z" fill="white"/>
<path d="M68.6695 65.1586C61.0225 65.1586 54.8132 71.548 54.8132 79.4168C54.8132 87.2856 61.0225 93.6749 68.6695 93.6749C76.3165 93.6749 82.5258 87.2856 82.5258 79.4168C82.5258 71.548 76.3165 65.1801 68.6695 65.1586ZM68.6695 89.3868C63.3145 89.3868 58.9805 84.9271 58.9805 79.4168C58.9805 73.9065 63.3145 69.4468 68.6695 69.4468C74.0245 69.4468 78.3585 73.9065 78.3585 79.4168C78.3585 84.9271 74.0245 89.3868 68.6695 89.3868Z" fill="white"/>
</svg>
